<?xml version="1.0" encoding="UTF-8" standalone="no"?>
<svg
   width="256"
   height="256"
   viewBox="0 0 256 256"
   version="1.1"
   id="svg15"
   sodipodi:docname="kudchuet.svg"
   inkscape:version="1.3.2 (091e20e, 2023-11-25, custom)"
   inkscape:export-filename="kudchuet.png"
   inkscape:export-xdpi="96"
   inkscape:export-ydpi="96"
   xmlns:inkscape="http://www.inkscape.org/namespaces/inkscape"
   xmlns:sodipodi="http://sodipodi.sourceforge.net/DTD/sodipodi-0.dtd"
   xmlns="http://www.w3.org/2000/svg"
   xmlns:svg="http://www.w3.org/2000/svg">
  <defs
     id="defs1" />
  <sodipodi:namedview
     id="namedview15"
     pagecolor="#ffffff"
     bordercolor="#000000"
     borderopacity="0.25"
     inkscape:showpageshadow="2"
     inkscape:pageopacity="0.0"
     inkscape:pagecheckerboard="0"
     inkscape:deskcolor="#d1d1d1"
     inkscape:zoom="62.329726"
     inkscape:cx="211.94542"
     inkscape:cy="139.9573"
     inkscape:window-width="1920"
     inkscape:window-height="1009"
     inkscape:window-x="-8"
     inkscape:window-y="-8"
     inkscape:window-maximized="1"
     inkscape:current-layer="svg15"
     showgrid="false" />
  <rect
     width="256"
     height="256"
     fill="#1e1b18"
     id="rect1"
     inkscape:label="background"
     x="0"
     y="0"
     style="display:none" />
  <path
     d="m 144.58924,18.313282 c -1.66626,0.260021 -3.09157,1.499578 -3.52614,3.24405 l -2.7504,11.001586 c -3.92453,-0.500815 -7.92895,-0.775753 -11.98891,-0.775753 -5.50623,0 -10.90281,0.49946 -16.14976,1.410459 L 106.92997,22.262562 C 106.25399,19.96282 103.87,18.695144 101.57022,19.371127 l -14.527728,4.231372 c -2.29975,0.675982 -3.56742,3.06002 -2.89144,5.359746 l 3.31458,11.283678 c -7.074551,3.226093 -13.672614,7.25915 -19.675914,12.05943 L 58.974345,44.19521 c -1.76822,-1.618396 -4.517104,-1.486128 -6.135499,0.282092 L 42.613013,55.690456 c -1.618395,1.76822 -1.486128,4.446626 0.282092,6.064976 l 8.321712,7.616483 c -5.301658,7.063356 -9.607419,14.936767 -12.76466,23.343107 L 26.46325,90.105671 c -2.341792,-0.511692 -4.636485,0.972766 -5.148177,3.314581 l -3.244058,14.739308 c -0.511692,2.34179 0.972789,4.63653 3.314581,5.14817 l 11.565769,2.53883 c -0.334764,3.22183 -0.493661,6.49279 -0.493661,9.8027 0,4.85764 0.34528,9.65675 1.057845,14.31616 l -10.86054,3.03249 c -2.306812,0.65147 -3.613439,3.05291 -2.961965,5.35975 l 4.090333,14.52773 c 0.651474,2.30681 3.052934,3.68394 5.359747,3.03249 l 11.001585,-3.10301 c 3.301717,7.64214 7.57981,14.7252 12.694137,21.15689 l -7.898574,7.68701 c -1.717534,1.67208 -1.742606,4.34737 -0.07041,6.06497 l 10.578447,10.86054 c 1.672083,1.71754 4.417966,1.74268 6.1355,0.0704 l 8.321711,-8.03962 c 7.26143,5.47441 15.365932,9.9198 24.048342,13.11728 l -2.67999,10.79013 c -0.57944,2.32595 0.84758,4.70983 3.17353,5.28922 l 14.668778,3.6672 c 2.32595,0.57943 4.63927,-0.84763 5.2187,-3.17354 l 2.82092,-11.28368 c 3.01972,0.29345 6.07166,0.49366 9.16799,0.49366 7.4484,0 14.7016,-0.89684 21.65056,-2.53882 l 4.01981,10.86054 c 0.82912,2.24908 3.2517,3.43854 5.50079,2.60935 l 14.24564,-5.28923 c 2.24909,-0.82912 3.36795,-3.25173 2.53883,-5.50079 l -4.09033,-11.07211 c 7.9349,-4.20899 15.19992,-9.51329 21.58003,-15.72662 l 9.02694,7.19334 c 1.87677,1.49116 4.57382,1.17156 6.06498,-0.70523 l 9.45008,-11.84786 c 1.49116,-1.87677 1.17154,-4.57375 -0.70523,-6.06498 l -9.02694,-7.12282 c 3.62506,-5.9641 6.5794,-12.37426 8.81537,-19.11173 l 11.21315,2.18622 c 2.3526,0.45947 4.61819,-1.10301 5.07766,-3.45563 l 2.89144,-14.88035 c 0.45947,-2.3526 -1.0325,-4.54759 -3.3851,-5.00713 l -11.21316,-2.18621 c 0.13541,-2.0606 0.21146,-4.11139 0.21146,-6.20602 0,-5.5785 -0.47592,-11.04948 -1.41046,-16.36134 l 10.93106,-3.66719 c 2.27461,-0.75628 3.50668,-3.15573 2.7504,-5.43027 l -4.79556,-14.386691 c -0.75628,-2.274608 -3.22619,-3.506696 -5.5008,-2.750396 l -10.50792,3.526149 c -3.11141,-6.780181 -7.0022,-13.103869 -11.56577,-18.900159 l 7.75764,-7.757528 c 1.69253,-1.697404 1.69738,-4.37247 0,-6.064977 L 197.12887,43.137365 c -1.69741,-1.692529 -4.44297,-1.697381 -6.1355,0 l -7.82805,7.898574 c -6.62998,-5.059872 -13.94347,-9.245326 -21.79161,-12.412045 l 2.82092,-11.283677 c 0.57944,-2.32595 -0.84758,-4.709762 -3.17353,-5.289224 l -14.66878,-3.667188 c -0.58149,-0.144883 -1.20765,-0.157295 -1.76308,-0.07041 z"
     style="display:inline;fill:#E5A93C;fill-opacity:1;fill-rule:evenodd;stroke:#533d12;stroke-width:4;stroke-miterlimit:4;stroke-dasharray:none;stroke-opacity:1"
     id="wheel"
     inkscape:label="wheel"
     sodipodi:nodetypes="cccsccccccccccccccccccsccccccccccccccccccsccccccccccccccccccscccccccccccccccccc" />
  <g
     id="checker"
     inkscape:label="checker">
    <path
       d="m 186,126 a 60,60 0 0 1 -60,60 v -60 z"
       fill="#F1EFEA"
       id="down_right"
       style="fill:#F1EFEA;fill-opacity:1;stroke:none"
       inkscape:label="down_right" />
    <path
       d="m 126,186 a 60,60 0 0 1 -60,-60 h 60 z"
       fill="#1E293B"
       id="down_left"
       style="fill:#1E293B;fill-opacity:1;stroke:none"
       inkscape:label="down_left" />
    <path
       d="m 126,66 a 60,60 0 0 1 60,60 h -60 z"
       fill="#1E293B"
       id="up_right"
       style="fill:#1E293B;fill-opacity:1;stroke:none"
       inkscape:label="up_right" />
    <path
       d="m 66,126 a 60,60 0 0 1 60,-60 v 60 z"
       fill="#F1EFEA"
       id="up_left"
       style="fill:#F1EFEA;fill-opacity:1;stroke:none"
       inkscape:label="up_left" />
    <ellipse
       style="fill:none;stroke:#0F172A;stroke-width:2;stroke-linecap:round;stroke-dasharray:none"
       id="path1"
       ry="60"
       rx="60"
       cy="126"
       cx="126"
       inkscape:label="stroke" />
  </g>
  <g
     id="dice"
     inkscape:label="dice"
     style="stroke:none;stroke-opacity:1">
    <rect
       x="89.554283"
       y="89.256111"
       width="26"
       height="26"
       rx="4"
       fill="#1E293B"
       id="rect13"
       style="display:inline;stroke:none" />
    <circle
       cx="96.554283"
       cy="96.256111"
       r="2"
       fill="#F1EFEA"
       id="circle13"
       style="stroke:none" />
    <circle
       cx="108.55428"
       cy="108.25611"
       r="2"
       fill="#F1EFEA"
       id="circle14"
       style="stroke:none" />
  </g>
  <g
     id="card"
     inkscape:label="card">
    <rect
       x="139.51828"
       y="88.256111"
       width="18"
       height="28"
       rx="2"
       fill="#F1EFEA"
       id="rect14"
       style="stroke:none" />
    <path
       d="m 148.74143,97.652659 q 0.16928,0.703123 0.52084,1.256507 0.35156,0.553384 1.24999,1.373694 0.90495,0.8138 1.14583,1.25 0.24089,0.43619 0.24089,0.88541 0,0.625 -0.41667,1.04167 -0.41666,0.41666 -1.01562,0.41666 -0.50781,0 -0.92448,-0.3125 -0.41015,-0.31901 -0.72916,-0.92447 0.007,0.95702 0.24739,1.52343 0.2474,0.55989 0.78125,0.88541 0.54037,0.31901 1.43229,0.37761 l 0.0456,0.24088 h -5.16274 l 0.0521,-0.24088 q 1.19791,0 1.85546,-0.69662 0.66406,-0.70312 0.63802,-2.08983 -0.29297,0.61848 -0.72916,0.93098 -0.42969,0.30599 -0.97656,0.30599 -0.58594,0 -1.00911,-0.42317 -0.41667,-0.42318 -0.41667,-1.01563 0,-0.47526 0.21484,-0.85937 0.29297,-0.53385 0.95052,-1.07422 0.65755,-0.540359 0.97005,-0.891921 0.47526,-0.540363 0.6901,-0.963539 0.22136,-0.423176 0.34505,-0.996091 z"
       fill="#1E293B"
       id="spade"
       style="font-size:13.3333px;line-height:1;font-family:Arial;-inkscape-font-specification:Arial;text-align:center;text-anchor:middle;stroke-width:1.00157;stroke-linecap:round"
       aria-label="♠"
       inkscape:label="spade" />
  </g>
  <path
     id="pawn"
     style="fill:#F1EFEA;fill-opacity:1;fill-rule:nonzero;stroke:none"
     inkscape:label="pawn"
     d="m 98.399926,139.713 c 0.0577,2.0139 1.434876,3.69668 1.841224,4.68304 0.40635,0.98637 0.46131,1.87996 0.50525,2.86294 0.0914,2.04585 -0.35713,4.09622 -0.930848,6.07243 -0.85195,2.93458 -4.019376,5.21716 -5.617806,7.85245 -0.51159,0.84345 -1.31633,2.4803 0.88652,2.53465 2.20285,0.0543 5.069164,0.10291 7.726004,0.0948 2.65684,-0.008 5.74649,0.0736 7.71063,-0.11618 1.96414,-0.1898 0.40145,-2.18017 -0.0988,-2.95596 -1.76004,-2.72949 -4.97232,-5.19038 -5.61572,-8.32944 -0.36897,-1.80017 -1.07726,-3.32181 -0.85567,-5.15259 0.13054,-1.07856 0.17787,-1.77889 0.63828,-3.07622 0.46041,-1.29734 2.03477,-2.56435 2.01575,-4.63497 -0.019,-2.07061 -1.74809,-3.62691 -4.03881,-3.63622 -2.29072,-0.009 -4.223714,1.78739 -4.166004,3.80129 z"
     sodipodi:nodetypes="szssszzzssszssss" />
  <g
     id="g1"
     inkscape:label="K">
    <path
       d="m 223.35586,231.77053 c 0.29829,0.39773 0.44743,0.94459 0.44743,1.6406 0,0.89488 -0.348,1.69033 -1.04401,2.38634 -0.59659,0.59659 -1.34232,0.89488 -2.2372,0.89488 h -23.71423 c -1.2926,0 -2.38634,-0.24858 -3.28121,-0.74573 -0.89488,-0.59658 -1.83947,-1.49146 -2.83378,-2.68463 l -28.18861,-35.49677 v 34.90019 c 0,1.09373 -0.39772,2.03832 -1.19317,2.83377 -0.79545,0.79545 -1.74004,1.19317 -2.83378,1.19317 h -19.53813 c -1.09375,0 -2.03834,-0.39772 -2.83379,-1.19317 -0.79544,-0.79545 -1.19316,-1.74004 -1.19316,-2.83377 v -96.34838 c 0,-1.09375 0.39772,-2.03834 1.19316,-2.83379 0.79545,-0.79544 1.74004,-1.19316 2.83379,-1.19316 h 19.53813 c 1.09374,0 2.03833,0.39772 2.83378,1.19316 0.79545,0.79545 1.19317,1.74004 1.19317,2.83379 v 31.46982 l 21.84983,-32.21556 c 0.79544,-0.99431 1.59089,-1.78975 2.38634,-2.38634 0.79544,-0.59658 1.98861,-0.89487 3.57951,-0.89487 h 23.26679 c 0.89487,0 1.6406,0.34801 2.23719,1.04402 0.69601,0.59659 1.04402,1.34232 1.04402,2.23719 0,0.59659 -0.14915,1.14346 -0.44744,1.64061 l -32.4392,45.04213 z"
       id="K_fill"
       style="font-weight:bold;font-size:146.095px;line-height:1;font-family:Rubik;-inkscape-font-specification:'Rubik Bold';text-align:center;text-anchor:middle;display:inline;fill:#0F172A;fill-opacity:1;stroke:#0A101F;stroke-width:5.0;stroke-linecap:round;stroke-dasharray:none;stroke-opacity:1"
       inkscape:label="K_fill"
       aria-label="K"
       sodipodi:nodetypes="csssscccssssssssssssccssscsccc" />
    <path
       d="m 219.36972,229.68327 c 0.14915,0.19887 1.24963,1.50995 1.7338,2.00996 0.82653,0.85355 1.15008,2.13459 0.45407,2.8306 -0.59659,0.59659 -4.71057,0.33693 -5.15801,0.33693 h -17.71423 c -0.6463,0 -3.05059,0.11307 -3.94546,-0.38408 -0.89488,-0.59658 -2.27463,-1.99507 -2.77179,-2.59165 -0.49715,-0.59659 -31.31694,-39.34346 -31.31694,-39.34346 0,0 0.0358,37.50381 0.0358,38.05067 0,0.54687 0.12987,2.82524 -0.66558,3.62069 -0.79545,0.79545 -3.36515,0.51356 -3.63858,0.51356 h -15.53813 c -0.54688,0 -2.71795,0.24612 -3.5134,-0.54933 -0.79544,-0.79545 -0.51355,-2.93075 -0.51355,-3.47761 0,-0.54687 -0.0431,-91.72483 -0.0431,-92.2717 0,-0.54688 -0.058,-3.02425 0.67557,-3.75874 0.79496,-0.79593 2.65594,-0.57972 3.20281,-0.57972 0.54688,0 14.7756,0.0144 15.32247,0.0144 0.54687,0 3.38519,-0.13343 4.18064,0.66201 0.79545,0.79545 0.50029,3.062 0.50029,3.60888 0,0.54687 -0.24662,35.90337 -0.24662,35.90337 0,0 24.60295,-36.48536 25.00067,-36.98251 0.39772,-0.49716 1.47312,-1.91992 2.26857,-2.51651 0.79544,-0.59658 2.35638,-0.66553 3.15183,-0.66553 0.79545,0 18.13925,-0.0134 18.58668,-0.0134 0.44744,0 4.38028,-0.10257 4.71857,0.15515 0.3383,0.25772 1.09449,1.24137 1.09449,2.13624 0,0.59659 -1.62598,2.15377 -2.38814,3.21482 -1.79882,2.50427 -31.25441,42.68189 -31.25441,42.68189 0,0 37.63257,47.19621 37.78171,47.39507 z"
       id="K_inner_stroke"
       style="font-weight:bold;font-size:146.095px;line-height:1;font-family:Rubik;-inkscape-font-specification:'Rubik Bold';text-align:center;text-anchor:middle;display:inline;fill:none;fill-opacity:1;stroke:#f1efea;stroke-width:1.8;stroke-linecap:round;stroke-dasharray:none;stroke-opacity:1"
       inkscape:label="K_inner_stroke"
       aria-label="K"
       sodipodi:nodetypes="zsszzczczzzzszzszzszczszzzssczz" />
  </g>
</svg>
