<?xml version="1.0" encoding="UTF-8"?>
<svg xmlns="http://www.w3.org/2000/svg" height="244.57" width="169" xmlns:xlink="http://www.w3.org/1999/xlink" viewBox="-0.2 -236 169.0625 244.561108">
<def>
<g id="a">
<path d="m-1670.8-737.04c-1.6 0-2.5 1.78-3 3.56-0.4 1.78-0.5 3.56-0.5 3.56l-0.8 0.01s-0.2-7.13-3.5-7.13h7.8z"/>
<path d="m-1668-729.91c0 3.47-5.2 5.99-6.7 8.73-1.5-2.75-6.7-5.27-6.7-8.73 0-1.64 1.5-2.97 3.3-2.97 1.9 0 3.4 1.33 3.4 2.97 0-1.64 1.5-2.97 3.4-2.97s3.3 1.33 3.3 2.97z"/>
</g>
<g id="b">
<g fill="#e61408">
<polyline points="187.03 69.85 186.02 66.14 184.99 65.01 178.81 74.51 186.99 74.35 187.03 69.85" transform="translate(-1674.7,-729.11)"/>
<path d="m-1502.1-639.91c0.9 1.15 1.8 2.08 2.9 3.07l-0.1 0.11 0.4 0.14 1.8-10.1-1.8-3.09c-1.8 2.6-3.3 5.28-4.9 7.99v-0.03l1.7 1.91"/>
<path d="m-1462.1-706.69-0.7 2.19 0.2 0.11 0.8-1.56c1.8 0.55 3.8 1.1 5.7 1.65 0.8 0.25 1.7 0.79 2.5 1.16 0.9 0.41 1.8 0.83 2.7 1.24l4.1-3.28 1.1 0.34 0.7 3.79 0.6 0.03 2.9-2.42 0.1 3.03 3.6-3.85c-0.7-2.22-1.4-4.43-2.2-6.65-0.5-1.73-1-3.54-1.7-5.2-2-4.32-4-8.62-6.1-12.9v-0.03l-7.5 11.55c-1.6 2.37-3.1 4.74-4.7 7.12-0.8 1.22-1.4 2.48-2.1 3.68"/>
<path d="m-1459.6-581.05c-3.6 2.03-7.2 4.07-10.7 6.13-2.2 0.63-4.4 1.26-6.5 1.89-1 0.27-2 0.28-3 0.41-1.2 0.16-2.3 0.32-3.5 0.49l-6.7-1.29-2.9-1.76-6.9 5.17 0.1 1.1c2.2 1.05 4.3 2.1 6.5 3.15 1.7 0.83 3.2 2.18 4.8 3.26l-0.1 0.06c1.1 0.62 2.2 1.3 3.3 1.94 2.1-0.87 4.2-1.74 6.4-2.6 0.8-0.31 1.6-0.44 2.4-0.65 1.5-0.37 2.9-0.73 4.3-1.1 4.1-1.06 8.4-1.37 12.6-1.61l1.6-2.95c2-2.25 3.9-4.44 5.9-6.62l-2.9-1.28-4.7-3.74"/>
<path d="m-1459.9-610.44 1.9 0.92 1.4 2.62 3.2 0.89c-1.6-3.76-3.5-7.48-5-11.31l-3-7.59c-0.6-1.6-1-3.35-1.5-5-1-3.27-2.3-6.56-2.9-9.91-0.8-3.87-1.5-7.73-2.3-11.6l-7.9-1.82c0.5 4.6 1.1 9.2 1.6 13.8 0.2 1.84 0.7 3.69 1.1 5.51 0.5 2.47 1 4.95 1.5 7.43 0.2 1.04 0.6 2.08 0.9 3.09 0.7 2.31 1.5 4.62 2.2 6.92 0.9 2.91 1.9 5.77 2.9 8.64l0.7 0.92 0.3 1.82v0.18l1.6 0.05-0.1-2.48 0.5-2.22 2.9-0.86"/>
<path d="m-1481.9-652.56-8.5 1.94c-0.1 1.14-0.2 2.27-0.3 3.41 0 0.82 0 1.72-0.2 2.52-0.6 2.3-1.1 4.61-1.7 6.91-0.6 2.46-1.2 4.91-1.8 7.37-0.4 1.86-1.3 3.68-2 5.47-0.6 1.67-1.2 3.33-1.8 5-0.6 1.49-1.4 2.92-2.2 4.34-1.4 2.86-3 5.62-4.5 8.41 2.3 1.07 4.3 2.61 6.4 3.97l3.6-0.62 1.5-2.13c1.6-3.84 3.2-7.68 4.8-11.53 0.6-1.29 1-2.45 1.4-3.8 0.2-0.82 0.3-1.78 0.7-2.55 0.4-0.9 0.8-1.79 1.2-2.69 1-4.69 1.7-9.43 2.5-14.15 0.3-1.48 0.6-2.97 0.7-4.47 0.1-2.47 0.1-4.93 0.2-7.4"/>
<path d="m-1507.7-615.44 2.3-5.33c-2.1-2.68-4.2-5.38-6.3-8.07v-0.04l-0.1-0.13-1 0.96c-1.2 1.79-2.4 3.58-3.6 5.36l-1.1 2.82c1.2 1.75 2.3 3.51 3.4 5.26 1 1.46 2.3 2.73 3.5 4.05l2.9-4.88"/>
</g>
<g fill="#f8c20f">
<path d="m-1508.6-624.96c1.1 1.41 2.2 2.78 3.3 4.17 0.7-1.29 1.4-2.58 2.1-3.88 0.7-1.28 1.1-2.81 1.6-4.17 0.5-1.14 1-2.28 1.3-3.48l1.1-4.53c-1.7-1.56-3.1-3.26-4.6-4.98-1.3 1.83-2.5 3.7-3.7 5.61-1.3 2.05-2.8 3.96-4 6.04-0.1 0.45-0.1 0.89-0.2 1.34l3.1 3.88"/>
<path d="m-1488.2-601.57c1.2-1.94 2.4-3.64 3.8-5.39l2.4-1.82 1.3-4.06-1.9 0.21-3.4 1.23-2.7 1.86-2.6 3.33-1.2 2.53 1.8 1.34 2.5 0.77"/>
<path d="m-1465.8-607.86-2.2-2.68-3.2-1.57-2.9-0.75-1.5 0.1 0.2 2.03-0.8-2.47-4.4-0.17-0.6 4.62 2.7 0.86 3.7-1.27-0.2-0.31 2 0.35 4 2.59 3 2.84 1.2-1.04c-0.1-0.74-0.2-1.47-0.3-2.21l-0.7-0.92"/>
<path d="m-1485.6-625.12c0.9 3.91 1.8 7.81 2.6 11.74l7.2-0.65c0.6-2.15 1.2-4.26 1.7-6.44 0.5-2.47 1-4.83 1.9-7.18l-1.4-2.93-0.8-0.35-0.5 0.08v0.09l-3.1-0.32-0.7 0.34 0.1 4.02-0.5 2.86-1 0.34c-0.1-2.15-0.2-4.29-0.2-6.44l-0.3-0.7-3.8 0.08c-0.4 1.81-0.8 3.63-1.2 5.46"/>
<path d="m-1492.9-565.58-6.8-3.33l-0.3-2.67 0.6-3.6 1.8-4.82-1-1.79-2.4-0.84-2.6 0.47-2.6 2.5-3.2 0.82-1.6 2.47-0.8 3.92 0.8 3.04-0.3 0.21-0.5 0.09 0.2 0.94 1.9 1.23-1.2 0.86 1.1 0.71 1.8 0.43-0.3 1.22 1.1 1.12-0.1 1.29c1 0.47 2.1 0.96 3.1 1.34 0.8 0 1.6-0.12 2.3-0.24 1.8 0.21 3.5 0.35 5.3 0.33 1.7-0.02 3.4-0.1 5.1 0.02l0.3-0.33 1.8-1.28c0.3-0.35 0.6-0.7 1-1.04l-4.5-3.07"/>
</g>
<path d="m-1424.9-633.87-4.1 0.98-5-2.65v-0.03l-0.5 0.83c-3.2 2.58-6.3 5.21-9.5 7.86-2.9 2.45-5.5 5.09-8.2 7.78l-0.2 0.43 5.8 11.22 2.3-0.26 2.6-1.1c2-1.64 4.1-3.29 6.1-4.93 1.6-1.28 2.8-2.87 4.2-4.4l1.7-3.58 0.4-1.81 3.3-1.99 8.1-7.94 2.3-3.41 1.2-3.2 0.1-3.49-0.9 0.26c-1.7 1.85-3.4 3.69-5.2 5.54-1.4 1.47-2.9 2.64-4.5 3.89" fill="#e61408"/>
<path d="m-1453.8-640.7c2.8-1.62 5.4-3.3 8.2-5.05l-0.6-1.64-9.8 4.85-2.1 0.25-3.4-6.82-1.8 0.6 3.6 12.3 0.1-0.07-0.1-0.38 5.9-4.04" fill="#e61408"/>
<path d="m-1438.3-631.68 3.8-3.05 0.5-0.83c-1.2-1.48-2.3-2.8-3.7-4.12l0.5 0.43 0.2-0.1-0.8-1.06 2-0.7c1.6-1.03 3.2-1.96 4.5-3.23 2.2-1.99 4.3-3.99 6.4-5.98 1.5-1.38 2.6-3.16 3.8-4.78 1.3-1.69 2.1-3.46 3.1-5.34 0.6-1.16 1.2-2.32 1.8-3.47 1.2-4.07 2.5-8.1 3.3-12.28 0.3-2.03 0.9-4.13 1-6.19 0.1-2.82 0.2-5.65 0.3-8.47 0-2.67-0.2-5.36-0.2-8.03l0.4 0.51v-0.58c-0.4-1.51-0.7-3.12-1.3-4.56-0.8-1.85-1.6-3.7-2.4-5.56l-3.5-3.74 0.3 18.13-3.2 1.34-6 6.35-3.1 6.9-1.3 8.1 2.3 10.26c-1.5 1.89-2.9 3.8-4.6 5.54-1.6 1.7-3.2 3.41-4.8 5.11-1.1 0.49-2.2 0.98-3.2 1.46-1.7-1.48-3.5-2.9-5.3-4.27-0.1 0.84-0.1 1.69-0.2 2.54l0.5 2.49 1.4 1.94 2 1.74-0.1-0.05-1.7-0.54c-2.4 1.6-4.9 3.14-7.4 4.62-2.4 1.35-4.5 2.98-6.7 4.5 0.8 3.05 2 5.91 3.2 8.83 0.7 1.71 1.3 3.41 2.1 5.12 0.5 1.35 1.3 2.52 2 3.77 2-1.98 3.9-4.13 6.1-5.95 2.7-2.28 5.3-4.54 8-6.8" fill="#f8c20f"/>
<g fill="#e61408">
<path d="m-1477.4-670.09c-0.4 3.71-0.9 7.4-1 11.13l7.4 0.64 1.8-2.58c0.5-2.25 1.1-4.49 1.7-6.74 0.4-1.67 1.1-3.4 1.2-5.11 0.6-5.2 1.2-10.39 1.8-15.59 0.3-3.31 0.7-6.62 1-9.93l-0.5-0.11-0.3-1-0.9-0.99-2.1 1.39-10.1 15.8v0.02l0.2-0.2-0.2 13.27"/>
<path d="m-1445.2-652.14c1.1 0.87 2.1 1.64 3.2 2.42l3-1.37c2.5-2.7 4.9-5.41 7.3-8.31l-8.6-3.2c-2 2.92-4.6 5.36-7 7.94l-0.3 0.91 0.1 0.03v-0.17l2.3 1.75"/>
<path d="m-1450.4-694.11-0.2 0.38 0.2 0.77c-0.3 2.26-0.7 4.52-1.1 6.78-0.3 1.82-0.4 3.71-0.9 5.5-1 4.25-1.9 8.57-3.5 12.67-0.9 2.59-1.9 5.18-2.9 7.77-0.7 1.85-1.8 3.6-2.7 5.35l1.9 1.29 4-3.08 3.3-4.46c0.9-1.97 1.8-3.92 2.6-5.92 0.8-1.9 1.7-3.8 2.3-5.76 0.6-2.15 1.5-4.34 2-6.54 0.4-2.56 0.9-5.11 1.4-7.67l0.3-1.47-0.4-2.24-1.5-0.77-0.7-1.42-1.9-0.85-1.3-1.22-0.1 0.37-0.8 0.52"/>
</g>
<path d="m-1455-670.39c0.5-1.89 1-3.78 1.5-5.68 0.4-1.65 0.9-3.33 1.2-5.01 0.7-3.96 1.3-7.93 1.9-11.89 0-0.35-0.1-0.69-0.2-1.04l-0.2 0.08-1.4-1.82-1.6-3.46-1.9-1.62-2.7-0.23c-1.4 0.95-2.8 1.93-4.1 3.01l-1-0.21-1.2 11.61c-0.3 3.07-0.7 6.14-1 9.22-0.2 1.63-0.2 3.46-0.6 5.05-1 3.83-2 7.66-2.9 11.49-0.9 1.23-1.7 2.47-2.5 3.7l9.1 3.15 1-0.63c1.1-2.19 2.3-4.34 3.2-6.65 1.2-3.03 2.3-6.05 3.4-9.07" fill="#f8c20f"/>
<path d="m-1487.5-658.59 9-1.94c0.4-3.37 1-6.79 1.1-10.17 0-4.22 0.1-8.43 0.2-12.65-4 6.07-7.9 12.16-11.8 18.23l-0.1 0.44 1.6 6.09" fill="#f8c20f"/>
<path d="m-1463.5-698.27 1 0.21c1.3-1.08 2.7-2.06 4.1-3.01l2.7 0.23 1.8 1.62 1.7 3.46 1.4 1.82 1.2-0.69c0.2-0.82 0.5-1.64 0.8-2.46l-0.2-3.5-0.9-0.83c-2-0.94-4.1-1.89-6.1-2.83-0.8-0.36-1.7-0.51-2.5-0.75l-3.4-0.96-1.5 3.33c0.4-1.36 0.8-2.72 1.3-4.07 0.3-0.57 0.6-1.1 0.9-1.72l-5.1 7.84 1.9 0.12-0.1 0.29c0.2 0.6 0.3 1.19 0.5 1.79l0.5 0.11" fill="#1c1585"/>
<path d="m-1410.5-680.29-0.2-17.23c-0.4-0.46-0.7-0.91-1.1-1.37 0.1 4.48 0.2 8.87 0 13.35 0 1.91-0.1 3.68-0.4 5.55-0.4 2.15-0.6 4.44-1.2 6.54-0.9 3.17-1.9 6.35-2.8 9.52-1.1 2.2-2.2 4.39-3.4 6.59-0.9 1.9-2.4 3.55-3.7 5.25-1.1 1.51-2.6 2.7-3.9 3.99-1.2 1.08-2.4 2.16-3.5 3.23-0.5 0.46-1 1.07-1.6 1.44-1.1 0.77-2.3 1.53-3.4 2.3l-2.1 0.7c1.3 1.63 2.6 3.25 3.8 4.88l5 2.65 4.1-0.98c1.7-1.33 3.3-2.57 4.7-4.13 1.8-1.93 3.7-3.86 5.5-5.78l3.5-8.16c0.4-2.29 0.8-4.46 0.8-6.78 0.1-1.52 0-3.03 0-4.55 0-5.52 0-11.03-0.1-16.55v-0.46" fill="#1c1585"/>
<path d="m-1451.3-576.31c-1.4-0.16-2.7-1.09-3.8-1.77-1.2-0.69-2.9-1.66-3.5-2.94-0.4-0.78 0-1.82-0.1-2.66-0.1-0.86-0.4-1.7-0.4-2.59 0.1 0.08 1.1 0.63 1.3 0.43 0.5-0.92-0.1-1.98 0.4-2.8 0.4-0.8 0.9-1.58 1.2-2.44 0.2-0.65 0.5-1.46 1.2-1.71 0.8-0.25 1.6-0.43 2.2-0.9 0.7-0.46 0.8-1.36 1.5-1.75 0.8-0.49 1.7-0.6 2.4-1.32 0.7-0.66 1.3-1.98 1.4-2.91 0.2-2.11-0.3-4.56-1.7-6.16 1.7-0.29 3.5-1.04 5.2-1.6 1.9-0.66 3.6-1.72 5.1-2.98 3-2.4 6.6-5.16 8.4-8.63 0.7-1.35 0.8-3.15 1.7-4.36 1-1.34 3-1.94 4.3-3.05 2.9-2.51 5.8-5.39 8-8.5 1.1-1.42 1.9-2.98 2.3-4.69 0.4-1.68-0.2-3.78 0.5-5.33 0.8-1.79 1.7-3.51 2.4-5.39 0.5-1.67 0.8-3.73 1-5.48 0.4-4.33 0-8.83 0-13.18 0-4.59-0.1-9.18-0.1-13.77v-8.82c0-2.95 0.3-6.07-0.8-8.88-1.7-4.77-3.2-10.05-7.6-13.07-1.3-0.85-3.2-0.3-4.5 0.13-1.9 0.62-3.6 1.49-5.3 2.52-1.5 0.95-3 2.02-4.4 3.13-0.7 0.6-1.5 1.21-2.2 1.82-0.5 0.34-1.4 1.33-2 1.2s-0.8-1.42-0.9-1.91c-0.3-1.18-0.7-2.36-1.1-3.53-0.7-2.32-1.6-4.57-2.5-6.82-0.9-2.24-1.9-4.44-2.9-6.61-0.6-1-1.1-1.96-1.6-2.96-0.4-0.87-0.8-1.94-1.7-2.52-0.4 0.8 0.2 1.69 0.6 2.35 0.6 0.93 1.1 1.91 1.6 2.88 1 2.12 2 4.27 3 6.43 1 2.22 1.8 4.51 2.6 6.81 0.4 1.19 0.8 2.38 1.1 3.59 0.2 0.76 1 2.7 0.3 3.37-0.3 0.26-1.3-0.07-1.6-0.27-1.7-0.97-2-2.8-2.5-4.52-0.6-2.42-1.5-4.73-2.5-7.02-0.4-0.99-0.8-1.98-1.3-2.97-0.4-0.96-1.1-1.88-1.4-2.92-0.2-1.05-0.1-2.24-0.1-3.31-0.1-1.14-0.2-2.27-0.3-3.41-1.4 0.87-0.8 2.7-0.4 4-0.6-0.35-2.1-1.72-2.3-0.24-0.4 3.34 0.6 6.89 0.9 10.29 0.1 1.84-0.1 3.69-0.1 5.53 0.1 1.47 0.4 3.51 0 4.91-0.3 0.73-0.5 0.76-1.3 0.75-0.6-0.01-1.7-0.72-1.8-1.44-0.1-1.55 0.5-3.23 0.7-4.76 0.3-1.59 0.5-3.19 0.7-4.8 0.3-3.05 0.4-6.17 0.4-9.23-1.4 0.83-1 3.03-1 4.38 0 2.01-0.1 4.05-0.4 6.04-0.3 1.88-0.7 3.76-0.9 5.65-0.1 0.61-0.1 2.48-1.1 2.44-0.1 0-1.3-0.05-1.2-0.26 1.4-4.62 2.2-9.64 2.1-14.48-1.6 1-1.2 4.21-1.4 5.86-0.1 1.61-0.4 3.13-0.8 4.71-0.2 1.25-0.4 2.26-1.3 3.18-0.7 0.65-3.9-0.82-4.4-1.21 0.8-0.28 3-0.79 3.2-1.77-0.8 0-2.2-0.25-2.7 0.47-0.9 1.33-1.2 2.79-1.7 4.25-0.4 0.96-0.8 2.39-1.8 2.95-0.3 0.19-1 0.02-1.2 0.16-0.2 0.17-0.4 0.49-0.5 0.72-0.4 0.72-0.9 1.47-1.3 2.25 1-0.3 0.7 1.44 0.6 1.9-0.2 1.6-0.1 3.25-0.3 4.87-0.4 3.79-0.5 7.59-1 11.38-0.3 1.78-0.3 3.59-0.5 5.38-0.3 2.04-0.8 4.07-1.1 6.1-0.1 0.28-1.8 7.81-2.6 7.12-0.5-0.47-0.6-0.62-0.5-1.34 0.9-5.41 2.2-10.83 2.4-16.31 0.2-2.61 0.4-5.21 0.6-7.82 0-1.35 0.2-2.7 0.2-4.04 0-1.32-0.1-2.68 0.3-3.97-0.8 0.45-1.4 1.72-1.8 2.51 0.7-0.32 0.8-0.36 0.7 0.32-0.4 2.3-0.2 4.76-0.4 7.09-0.1 2.73-0.3 5.44-0.6 8.16-0.6 5.11-1.7 10.12-2.5 15.2-1.4-0.17-0.9-2.79-0.8-3.66 0.3-2.13 0.4-4.25 0.6-6.4 0.2-2.84 0.4-5.71 0.6-8.55 0.1-1.53 0.2-3.05 0.2-4.59 0-1.44-0.1-2.88 0.3-4.3-0.9 0.47-1.4 1.69-1.8 2.51 1-0.39 0.5 2.7 0.5 3.13-0.1 1.31 0 2.56-0.2 3.87-0.2 1.62-0.2 3.26-0.2 4.89 0 2.57-0.2 5.42-0.6 7.96-0.1 0.54-0.4 4.66-1.1 4.66s-0.1-8.67-0.1-9.52c0-2.08 0.2-4.16 0.3-6.24 0-0.95 0.1-1.89 0.1-2.84 0-1.13-0.2-2.26-0.2-3.4-1.4 0.85-0.7 3.46-0.7 4.79 0 2.18-0.2 4.33-0.2 6.52 0 2.29-0.2 4.52-0.3 6.81 0 0.87 0.1 3.71-1.2 3.9 0-2.96-0.3-5.91-0.3-8.87 0-2.88-0.2-5.76-0.3-8.63-0.5 0.47-0.9 1.09-1.1 1.76-0.3 0.79 0.3 1.55 0.1 2.28-0.3 0.69-0.5 1.72-1.3 1.96-0.6 0.17-1.7-0.43-1.9 0.53 1.1-0.21 2.7 1.13 3.1 2.11 0.3 0.92 0.4 1.28 0.2 2.24-0.1 0.46-0.7 1.43-1.3 1.46-0.6 0.04-0.9-0.86-1.3-1.29-0.5-0.6-1 0.24-1.2 0.7-0.2 0.83-0.5 1.21-1.4 0.8-0.5-0.25-0.8-1.18-0.8-1.77-1.3 1.06-0.6 2.94-0.3 4.28 0.1 0.42 1.2 4.71 0.5 4.72-0.1 0-0.4 0.04-0.4-0.02-0.4-1.09-0.8-2.16-1-3.29-0.2-0.75-0.3-1.96-1-2.43-0.1 0.11-0.8 0.96-0.8 1.04 0.6 0.8 2.5 4.61 1.5 5.45-0.3 0.25-0.5-0.09-0.5-0.29-0.4-1.47-1.2-2.63-1.2-4.2-0.4 0.21-0.6 0.57-0.9 0.9-0.4 0.65-0.2 0.87 0.1 1.48 0.6 0.78 0.9 1.71 1 2.62-1-0.66-0.9-2.19-1.8-2.99-0.2 0.28-0.3 0.55-0.6 0.82-0.2 0.35 0.3 0.67 0.4 0.93 0.4 0.68 0.6 1.47 0.5 2.25-0.6-0.64-1-1.39-1.2-2.24-1.1 0.9-0.1 1.91-0.3 3-0.3-0.41-0.7-0.95-0.7-1.5-0.6 0.47-1 1.11-1.3 1.76 0.3-0.04 0.5-0.04 0.8 0-0.2 0.71-0.9 1.24-1.7 1.26-0.3 0.01-0.7 1.06-0.9 1.31-0.9 1.61-2.1 3.03-2.9 4.71 0.1-0.07 0.8-0.46 0.8-0.15 0 0.99 0.4 1.96 0.7 2.89-0.7-0.1-1.2-0.92-1.7-1.38-0.3-0.33-0.2-0.4-0.6-0.12-0.8 0.48-1.3 1.86-1.8 2.6-0.7 1.13-1.7 2.25-2.1 3.57 0 0.37 2.3 2.04 2.5 2.09-0.2-1.23-1.5-1.78-1.8-2.99 0.9 0.42 1.5 1.27 2.2 1.95 0.7 0.77 1.6 1.66 1.9 2.78-0.6-0.53-1.2-1.33-2-1.49 0 0.53 0.2 1.03 0.5 1.5-1.3-0.09-2.2 0.89-3.3 1.27 0-0.83-0.1-1.67-0.1-2.5 0-0.68 0.2-1.36-0.1-2-1 0.58-1 5.56-0.4 5.49 1.2-0.13 2-1.17 3.1-1.51 0.2 0.43 0.3 0.86 0.5 1.25 0.6-0.39 0.5-1.16 0.5-1.75 0.3 0.3 0.9 0.81 0.9 1.29-0.1 0.66-0.2 1.3-0.4 1.96-0.1-0.25-0.8-1.66-1-0.8-0.1 0.47 0.2 4.56-0.5 4.56-0.5 0-0.6-0.45-0.9-0.85-0.6-0.77-1.1-1.51-1.7-2.28-0.8-1.18-2.3-2.54-2.4-4.1-0.8 0.62-0.3 1.63 0.2 2.29 1 1.26 1.9 2.57 2.8 3.87 0.9 1.19 1.7 2.58 1.1 4.07-1.2-0.67-2-1.97-2.8-3.09-0.9-1.31-2.6-2.83-3-4.38-0.3 0.27-0.5 0.58-0.7 0.95 0.1-0.14 2.5 2.9 2.6 3.09 0.9 1.43 2.9 3.2 3.1 4.94-1.1 0.16-2 0.78-3.2 0.77 0-0.4 0.2-4.76-0.1-4.75-1.1 0-2.1 0.26-3.2 0.27v-3c-1.2 1.07-2 2.81-2.8 4.16-0.5 0.79-0.9 1.48-0.2 2.28 1.9 2.11 3.5 4.47 5.1 6.71 0.6 0.78 0.6 1.43 0.3 2.33-0.3 0.77-0.8 1.58-1.5 2.01-0.7-1.77-2.2-3.01-3.4-4.47-1-1.44-2.7-3.05-2.7-5-1 0.96-3.3 3.84-2.5 5.31 1.5 2.53 3.6 4.64 5.1 7.15 0.6 1.06 1.2 2.16 2.1 3.05 1 0.98 2.2 1.5 3.3 2.32 0.9 0.69 0.6 1.95 1.3 2.79 0.5 0.59 2.1 0.58 2.2 1.38 0.2 1.03 0.1 1.92 0.6 2.87 0.4 0.79 1.5 1.21 2.4 1.38 0.9 0.21 2 0.15 2.9-0.33 0.1 0.54-0.2 1.08-0.3 1.6-0.1 0.63 0 1.16 0.2 1.75 0.2 0.75 2 1.67 2.6 2.11 0.6 0.48-0.4 2.75-0.5 3.47 0 1.08 0.3 2.14 0.7 3.12 0.5 1 0.1 1.83-0.1 2.87-0.2 1.55 1.5 2.67 1.5 4.2 0 0.83-0.3 1.65-0.2 2.47 0.1 0.86 0.5 1.81-0.4 2.43-0.8 0.66-1.7 1.4-2.6 2.02-0.9 0.6-1.7 1.48-2.8 1.72 0-0.81-0.2-2.48 0.4-3.14 0.3-0.36 0.8-0.6 1-0.99 0.5-0.66 0.1-1.69 0.4-2.45 0.4-0.82 0.6-1.51 0.7-2.39 0.2-0.98-1.1-1.93-1.9-2.34-1-0.6-1.9-0.75-3.1-0.63-0.8 0.08-1.5 0.28-2.1 0.71-0.8 0.53-1.2 1.38-1.9 1.9-1.3 0.86-3.6 0.28-4.4 1.92-0.7 1.43-0.9 2.73-1.3 4.23-0.2 0.7-0.6 1.22-0.4 1.98 0.2 0.87 0.6 1.67 0.9 2.51-0.8 0-0.9 0.67-0.6 1.24 0.3 0.58 1 0.93 1.3 1.51-0.1 0.03-0.9 0.06-1 0.26-0.1 0.23 0.5 0.73 0.6 0.85 0.6 0.45 1.4 0.8 2.2 0.89-0.6 0.82-0.1 1.63 0.8 2-1.1 1.48 1.7 2.05 2.6 2.52 0.9 0.53 1.9 0.39 3 0.3 1-0.08 2 0.12 3.1 0.18 2.6 0.16 5.2-0.08 7.8-0.09-0.6-0.49-1.6-0.29-2.3-0.25-1.4 0.08-2.8 0.02-4.2 0.03-2.2 0.01-4.3-0.46-6-1.96-1.7-1.56-3.1-3.24-4.1-5.36-0.8-1.79-2-4.5-0.5-6.24 0.4-0.56 0.9-1.14 1-1.89-0.4 0.06-0.7 0.31-1 0.51 0.2-0.54 0.6-1.43 0.5-2-1.5 0.38-1.7 2.88-1.8 4.06-0.1 0.94-0.1 1.9 0.1 2.83 0.1 1.03 0.8 2.05 0.7 3.11-0.6-0.58-2.3-1.07-2.5-1.99 0.6 0.28 1.2 0.23 1.8 0.24-0.3-1.3-1.8-2.04-1.8-3.49 0.2 0.33 0.6 0.66 1 0.74 0-0.54-0.1-1.07-0.2-1.6-0.1-0.7-0.1-0.69 0.4-1.02 0.5-0.4 0.9-2.22 0.8-2.88-0.6 0.33-0.9 1.13-1 1.75-0.9-1.6 1.7-3.92 3.2-3.69 2.4 0.38 0.5 3.41 0.5 4.92 0.9-0.51 1.2-1.53 2-2.01-0.5 1.07-1.8 2.29-1.9 3.51 1.3-0.2 1.6-2.12 2.7-2.76-0.2 1.55-2 2.52-2 4.01 1.2-0.24 2-1.48 2.6-2.39 0.4-0.54 1-2.11 1.6-2.31 1.1-0.35 1.4-0.56 2.3 0.17-1.1 0.16-2.2 0.96-2.5 2.01-0.4-0.21-0.5-0.23-0.8 0.15-0.4 0.57-1.3 1.86-0.9 2.6 0.3-0.25 0.6-0.48 1-0.75-0.6 1.75-3.5 2.29-2 4.51 0.4-0.55 0.4-1.31 0.8-1.86 0.6-0.72 1.6-1.5 2.4-1.9 0 0.54 0.1 1.32-0.1 1.84-0.2 0.54-0.9 0.97-1.2 1.4-0.6 0.64-1.2 2.72 0.1 3.02 0-1.25 0.1-2.11 1-3.03 0.8-0.83 1.7-0.53 2.7-0.24-0.5 1-1.3 2.12-0.7 3.25 0.7-0.52 0.8-2.44 2.1-2.37 0.5 0.03 0.8 0.33 1.1 0.6-1.7 0.3-2 2.36-1.2 3.64 0.7 1.38 2.9 1.56 4.3 1.59-0.3-0.38-0.8-0.49-1.2-0.57-0.7-0.13-1.2-0.42-1.7-0.9-1.1-0.92-0.8-2.37 0.3-3.02-0.2 0.76-0.5 2.79 0.8 2.75v-1.5c0.6 0.3 1.2 0.7 1.9 0.7 0.8 0.01 1.6-0.11 2.3 0.23 0.7 0.29 1.3 1.04 1 1.7-0.3 0.67-1.3 0.96-1.2 1.85 1-0.58 1.9-1.09 3-1.54 0.6-0.27 2.2 1.26 2.7 1.54s1.4-0.25 1.8-0.48c0.9-0.45 1.7-0.82 2.6-1.17 2.4-0.93 4.6-1.59 7-2.2 2.5-0.61 4.9-1.04 7.4-1.46 1.2-0.2 2.4-0.29 3.6-0.39 1.2-0.11 2.8 0.01 3.9-0.43 0.7-0.26 0.9-1.31 1.2-1.9 0.5-1.08 1.3-2.1 2.1-3 0.9-1 1.8-1.91 2.8-2.82 0.7-0.64 1.9-1.35 1.9-2.37m-55.2 14.79c0-0.5 0.1-1.07-0.3-1.46-0.4-0.35-1-0.7-1-1.29 1.1 0.01 1.7 1.17 2.4 1.77 0.7 0.65 2.1 1.33 2.2 2.46-1.4 0.04-2-1.15-3.3-1.48m7.5-7.54c-0.2-1.09 1.3-0.48 1.8-0.28 1.4 0.6 2.8 1.31 4.1 2.04 1.7 0.91 3.4 1.83 5 2.89 0.7 0.48 1.9 1.79 2.9 1.58 1.8-0.4 3.6-1.44 5.4-2.02 2.2-0.69 4.4-1.31 6.6-1.9 2.1-0.58 4.1-0.81 6.3-1.01 1-0.08 1.9-0.33 2.8-0.41 0.7-0.06 1.7 0.29 2.4 0.04 1.7-0.68 2.5-3.07 3.7-4.42 0.9-1.13 2.8-3.56 4.4-3.6 0.2-0.01 0.5 0.04 0.7 0.15 0.4 0.24 0.3 0.18 0.2 0.59-0.3 0.75-1.3 1.37-1.9 1.9-0.8 0.83-1.7 1.68-2.4 2.58-0.7 0.76-1.2 1.57-1.6 2.46-0.3 0.66-0.7 1.52-1.5 1.64-2.1 0.31-4.1 0.09-6.1 0.47-2.2 0.42-4.5 0.83-6.8 1.37-2.1 0.52-4.3 1.02-6.4 1.71-1.1 0.38-2.3 0.77-3.4 1.26-0.8 0.36-1.8 0.9-2.7 0.77-1.1-0.16-2.1-1.16-3.1-1.79-1.1-0.8-2.3-1.6-3.5-2.34-2.3-1.36-4.6-2.46-6.9-3.68m-0.2 7.75c-0.2-0.57-0.7-0.97-1-1.38-0.5-0.48-0.6-1.21-0.9-1.8-0.5-1.21 0.7-2.19 0.8-3.31-3.3 0.6-2 6.48 1.1 6.49m-5-2.22c0.2-0.67-0.4-1.37-1.1-1.5 0 0.69 0.4 1.24 1.1 1.5m15.4-2.58c0.4-1.52 2.5-2.45 2.5-4.01-1.5 0.74-2.3 2.44-3.7 3.27 0.2-1.51 2-2.25 2.2-3.76-1.3 0.23-2.1 1.88-3.2 2.52 0.2-1.26 1.8-1.99 2-3.26-1.5 0.27-2.1 2.24-3.5 2.52 0.7-1.1 2-2.2 2.2-3.51-1.3 0.43-1.9 2.18-3.2 2.52 0.2-1.23 1.6-2.04 1.9-3.26-1.1 0.21-2.5 1.9-3.2 2.77-0.4-0.63 0.6-1.58 0.9-2 0.3-0.35 0.9-1.76 1.4-1.76 1 0 2.2 1.18 3.2 1.48 1.3 0.39 2.6 0.51 3.9 0.69 2.8 0.37 5.8 0.03 8.5-0.54 3-0.62 5.8-1.68 8.6-2.99 1.3-0.66 2.7-1.41 4-2.14 1.3-0.74 2.5-1.79 4-2.37 1.2-0.51 3.4 1.4 4.2 2.25 0.5 0.61 0.2 0.98-0.1 1.66-0.5 1.03-1.6 1.75-2.3 2.61-1 1.16-1.7 2.52-2.7 3.65-0.4 0.53-0.9 0.59-1.5 0.74-0.8 0.17-1.6-0.21-2.3-0.06-1 0.18-1.9 0.28-2.9 0.38-1.9 0.2-4 0.7-5.9 1.17-2 0.48-3.9 1.12-5.8 1.73-1.8 0.57-3.5 1.53-5.4 1.88-1 0.17-3-1.65-3.8-2.18m-5 0.77c0.4 0.1 0.7 0.31 1 0.5-0.3 0.32-0.9-0.07-1-0.5m11.5-2.31c-1.2 0-2.5 1.66-2.7 2.76 1.1-0.03 2.7-1.63 2.7-2.76m-3.5 2.27v-1c-0.5 0.11-0.6 0.53-0.7 1h0.7m-20 0.11c0.2-1.23-1.2-2.64-1.7-3.74-0.9 0.91 0.6 2.3 0.7 3.21 0.1 0.42 0.6 0.41 1 0.53m-4.5-0.73c0.5-0.37 1-0.46 1.3-1.01 0.4 0.34 0.7 0.97 0.8 1.5-0.7 0.03-1.5-0.09-2.1-0.49m25.5-3.14c-0.5-1.04-3.1 2.31-3.2 3.02 1.2 0.03 3-1.82 3.2-3.02m1.5 0.5c-1.1-0.32-2.2 1.26-2.2 2.26 1-0.03 2.1-1.27 2.2-2.26m-24.5-1.12v-1.5c-0.7 0.23-0.4 1.14 0 1.5m7-1.04c0.1-1.38-0.6-2.73 0.2-4 0.4 0.49 0.2 1.25 0.1 1.78-0.1 0.7 0.2 1.61-0.3 2.22m10.7-7.56c2.1 0.36 4.2 0.37 6.2-0.45 0.6-0.23 1.6-2.06 1.7-2.63 0.3-3.34-0.9-6.69-0.7-10.06 0.1-1.43 1.6-0.76 2.5-0.52 0.4 0.12 1.2 0.26 1.4 0.66 0.2 0.44-0.2 1.07-0.4 1.45 0.6-0.33 1.3-1 1-1.76-0.3-0.7-1.5-1.01-2.2-1.1-0.9-0.13-1.6-0.15-2.6 0.2-0.7 0.27-1.8 0.75-1.5 1.68 0.7-0.36 0.8-0.29 1 0.49 0.3 1.29 0.3 2.58 0.4 3.89 0 1.41 0.4 2.78 0.4 4.2 0 0.9-0.4 2.29-1.3 2.69-1.2 0.52-5.1 1.79-5.9 0.09-0.4-0.71-0.4-0.91-0.3-1.68 0-0.5 0.5-1.02 0.9-0.89 1.4 0.35 2.2 1.15 3.6 1.21-1-0.71-2.6-0.49-3-1.98 1.2 0.2 3 1.28 4.1 0.2 0.6-0.61 1.1-1.17 0.8-2.06-0.3-0.64-0.7-1.15-1.2-1.65-0.3 1.15-2.5 0.99-3.4 1.02v-1c-0.5 0.25-0.8 0.57-1 1-0.8-0.84-0.6-3.59-0.5-4.58 0.3-2.09 0.9-4.13 1.7-6.12 1.1-3.17 3.7-6.82 6.6-8.6-1.9-0.31-3.1 2.51-4.4 3.51-0.6 0.48-1.1 0.16-1.8 0.27 0.3-1.58 1.2-2.95 2.2-4.18 1-1.32 2.1-2.75 3.7-3.39 0.7-0.29 1.4 0.1 2.1 0.42 0.7 0.36 1.4 0.42 2.2 0.29 1.7-0.29 3-1.86 4.8-0.99 2.1 0.96 3.9 2.06 5.4 3.74 0.6 0.65 1.1 1.17 0.8 2.06-0.1 0.76-0.3 1.63-0.6 2.35-0.2 0.5-0.4 0.26-0.8 0.04-2.2-1.31-4-3-6.5-3.86-1.2-0.41-2.4-0.69-3.6-0.88-1.3-0.2-2.2 0.19-3.5 0.37 0.7 0.25 1.5 0.1 2.2 0.06 1-0.04 1.9 0.19 2.8 0.38 1.7 0.35 3.3 0.91 4.8 1.72 1.4 0.76 2.8 1.72 4 2.75 1 0.81 2.4 2.46 2 3.81-0.2 0.74-0.6 1.37-0.9 2.09-0.2 0.83-0.1 1.74 0 2.59 0.3 1.78 0.7 3.37-0.3 4.99-0.8 1.42-1.1 2.83-0.6 4.44 0.4 1.44 1.2 3.21 0.3 4.63-0.9 1.47-2.6 2.16-4.2 2.67-2.1 0.7-4.3 1.33-6.5 1.75s-4.5 0.51-6.7 0.27c-1.5-0.17-4.3-0.19-4.8-2-0.3-1.18-0.4-2.36-0.4-3.6m-0.7 3.51c-0.8-0.72-1.3-2.5-0.8-3.49 0.8 0.49 1.4 2.75 0.8 3.49m-1.8-1.24c-0.6-0.62-0.7-2.4 0.3-2.75 0 0.76 0.2 2.09-0.3 2.75m-6.5-5.47c-0.4 0.34-1.1 0.07-1.6 0.07-0.7 0.01-1.4 0.31-2.1 0.59-1.2 0.46-1.8 2.24-1.8 3.37 0.8 0.1 0.6-0.82 0.7-1.29 0.2-0.72 0.9-1.37 1.6-1.55 1.1-0.28 3.2-0.61 3.7 0.81-0.7-0.22-1.3-0.63-2-0.74 0.5 0.76 1.6 1.01 1.8 1.99-0.7-0.01-1.3-0.29-2-0.15-0.8 0.18-1.4 0.33-2 0.92 0.8-0.21 1.5-0.26 2.4-0.26 0.2 0 0.2 0.5-0.2 0.5-1.1 0-1.9 1.22-3.1 0.69-0.7-0.31-1.3-0.93-1.5-1.66-0.3-1.41 0.4-3.18 1.9-3.64 1.7-0.52 2.6-0.11 4.2 0.35m30.5 0.34c-1.4 0.73-2.1 2.11-3.9 2.25-1 0.08-2.1 0.08-3.1-0.03-0.8-0.09-1.6-0.58-2.5-0.42 0.2 1.49 4.1 1.51 5.1 1.31 1.5-0.31 4.1-1.3 4.4-3.11m2.5 2.99c-0.4-0.83-0.5-1.81-0.6-2.72-0.1-0.9-0.4-1.75-0.5-2.65-0.2-0.93 0.1-1.94 0.8-2.6 0.8-0.76 1.7-0.79 2.8-0.79-0.2 0.64-1 1.08-1.3 1.67-0.7 1.17 0 2.4 0.3 3.58 0.1 0.71 0.6 2.5-0.5 2.76 0-2.28-1.3-4.17-0.8-6.49-2.6 1.27 1.5 5.55-0.2 7.24m-12.7-1.19c0-0.39-0.4-0.72-0.8-0.75 0 0.4 0.4 0.73 0.8 0.75m15.2-0.33c0-1.3-0.3-2.42-0.6-3.67-0.2-0.66-0.3-1.91 0.6-2.08 0.1 1.59 0.8 2.96 0.7 4.58 0 0.58 0 1.3-0.7 1.17m-28.2-0.35c-0.8-0.73-2.1-1.6-2.3-2.74 0.8 0.31 3.2 1.59 2.3 2.74m30.2-0.66c0.3-1.41-2.2-4.56-0.3-5.5 0.1 1.43 2 4.45 0.3 5.5m-15-0.67c-0.4-0.56-1.3-1.3-2-1.49 0 0.97 1.2 1.49 2 1.49m17-0.84c-0.3-1.08-0.7-2.19-0.9-3.3-0.2-1.17 0.8-1.97 1.9-1.46-0.5 0.57-1 1.06-0.9 1.86 0.1 0.9 0.5 2.1-0.1 2.9m-9.8-1.7c-0.8-0.72-1.2-2.48-2.5-2.49 0.1 0.33 0.2 0.66 0.3 1-1.2-0.32-2.2-0.69-3.4-0.66-0.6 0.01-1.2 0.05-1.7-0.13-0.4-0.14-0.5-0.78-1-0.55-0.3 0.14-1.3 1.54-1.4 1.88-0.1 0.27 0.2 0.77 0.4 0.96 1.2 1.4 3.1 1.77 4.9 1.39 0.9-0.21 1.8-0.81 2.8-0.75 0.8 0.06 1.4 0.25 1.6-0.65m-18 1.35c0-0.17-0.1-0.61 0-0.75 0.1-0.07 0.7-0.07 0.8 0 0.6 0.63-0.5 0.75-0.8 0.75m-4.7 0.02c-0.6-0.53-1.5-1.09-1.5-1.99 0.5 0.27 2.1 1.3 1.5 1.99m16.7-0.33c0-0.33-0.2-1.39 0.6-1 0.5 0.29-0.2 0.79-0.6 1m-15.7 0.08c-1.8-2.2-3.7-4.26-3.8-7.23 0.6 0.36 0.7 1.17 1.1 1.75 0.4 0.74 0.9 1.42 1.4 2.09 0.6 0.72 2.2 2.41 1.3 3.39m14.5-0.58c0-1.05 0.4-2.19 1.6-2.21 0.9-0.01 1.4 0.68 1.6 1.44-0.5-0.01-1.2-0.47-1.8-0.29-0.7 0.24-0.6 1.19-1.4 1.06m-9.2-0.2c-0.9-0.64-1.4-0.26-2.3 0.01 0.1-0.69 0.7-1.38 1.4-1.31 0.5 0.06 1.4 0.68 0.9 1.3m13.2-0.57c-0.3-0.25-0.5-0.6-0.5-1 0.4 0.07 0.8 0.61 0.5 1m-19.3-2.15c-0.5-0.63-1.1-1.4-1.2-2.24 0.5 0.33 1.7 1.57 1.2 2.24m30-0.4c-0.6-1.79 2.7-2.86 3-1.27-1.3 0.13-1.9 0.62-3 1.27m-1.2-1.25c-0.7-1.33-0.4-3.98 0-5.38 0.3-1.12 1.1-1.48 2.1-1.75 1-0.24 1.9 0.13 2.8 0.1-1.1-0.54-2.8-0.74-4-0.73 1-1.51 4.4-0.35 5.8-0.28 0-0.9-1.5-0.55-2.1-0.65-1.2-0.23-2.4-0.58-3.7-0.57 0-1.02 1.3-1.01 2-0.81 0.9 0.28 2.4 0.85 3.4 0.61 0.6-0.15 1.8-1.17 2.3-0.29 0.6 1.05-0.6 2.02-1.2 2.69-0.6 0.74-1.7 0.91-2.6 1.11-1.1 0.24-2 0.8-3 1.24-2 0.85-0.2 3.81-1.8 4.71m-2.3-0.24c-0.3-0.6-0.2-1.3-0.3-1.94-0.1-0.72-0.4-1.46-0.3-2.21 0.1-1.24 0.3-3.84 2.1-3.85 0.2 0.92-0.5 2.07-0.5 3.02v2.01c0.1 0.67 0.3 3.2-1 2.97m-25.7-0.61c-0.5-1.36-1.2-2.44-1.8-3.74 1.1 0.21 3.1 2.85 1.8 3.74m-1.3-0.24c-0.8-0.8-1.3-1.6-1.2-2.74 0.8 0.16 1.9 2 1.2 2.74m30.8-0.42c0.1-0.71 0-1.73 0.5-2.24 1.1-1.04 1.9-1.47 3.4-1.77 0.5-0.09 0.8-0.15 0.8 0.3 0 0.87 0 1.59-0.2 2.44-0.4-0.41-0.3-1.01-0.3-1.5-0.5 0.7-1 2.11-2 2.26 0-0.75 0.3-1.5 0.2-2.25-1.1 0.66-0.9 2.47-2.4 2.76m-3.5-0.73c-0.1-1.25-0.1-2.5-0.1-3.75-0.8 0.64-0.6 3 0.1 3.75m-26.1-2.11c-1-0.64-2-1.09-3.2-1.42-1-0.26-2.1-0.73-2.3-1.8 0.5 0.23 0.9 0.53 1.4 0.72 0.6 0.24 1.3 0.17 1.9 0.34 0.7 0.19 2.6 1.18 2.2 2.16m35.8-1.19c0-1.25 2.1-2.03 1.9-3.29-0.1-0.56-0.1-1.13-0.2-1.69-0.2-1.77-3.8 0.51-4.7-0.75 0.6-0.33 1.3-0.49 1.9-0.74 0.7-0.28 1.3-0.93 2.1-1.08 1.4-0.29 2.8 1.59 4.2 1.78-0.9-0.69-2.9-1.6-3.3-2.73 1 0.18 1.8 0.98 2.7 1.41 0.4 0.21 1.9 0.2 2.1 0.69 0.2 0.33-0.2 0.93-0.4 1.14-0.3 0.33-0.9 0.4-1.3 0.53-0.8 0.23-1.8-0.3-2.5-0.52 0.2 0.18 2.7 1.44 2.7 1.56 0 1.35-2 0.35-2.7 0.44 0.1 0.91 0.3 1.67-0.4 2.41-0.5 0.52-1.4 0.81-2.1 0.84m-35-0.32c-0.6-0.39-1.2-0.9-1.8-1.19-0.8-0.35-1.7-0.13-2.4-0.42-0.9-0.31-1.8-0.59-2.1-1.57-0.2-0.84 0-1.68-0.2-2.54-0.6 0.17-1.1 0.56-1.7 0.79-0.7 0.28-1.6-0.13-2.2-0.28-0.8-0.17-1-0.6-1.5-1.21-0.5-0.52-0.2-1.35-0.5-1.92-0.6-1.37-2.6-1.38-2.5-3.08 0.1-0.38 0.1-0.62 0.4-0.9 1.1-1.01 1.3 0.55 1.7 1.37-0.4-0.05-0.7-0.16-1-0.25 0.4 0.7 1.4 1 2.2 0.99-0.3-0.18-0.6-0.39-1-0.49 0.7-0.51 1.5-0.04 2.2 0.17 0.6 0.19 1 1.52 1.1 2.07 1.3-0.43 2.8-0.83 4-0.04 1.2 0.77 1.1 2.74 1.3 4.01 0.5-0.12 1-0.13 1.6-0.17 1.1-0.1 2.7 1.58 2.9 2.65-0.7-0.46-1.3-1.13-2.1-1.33-1.1-0.28-2.2-0.1-3.2-0.89 0 1.09 1.3 2.1 2.3 2.22 0.7 0.08 1.3-0.01 1.8 0.49 0.4 0.39 1.1 0.91 0.7 1.52m10.5-0.55c-1-0.87-2.8 0.17-3.5-0.98 0.5-0.08 1 0.14 1.4 0.09 0.6-0.06 1.2-0.14 1.8-0.13 0.1 0 2.3 0.47 2.3 0.45 0.1-0.34 0.2-0.65 0.2-1.02 0-0.6-0.2-0.42-0.8-0.42-1.5 0.01-3.4-0.11-4.9 0.34-0.6 0.17-0.8 0.04-0.8 0.69 0 0.55 0.1 0.49 0.6 0.67 1.1 0.43 2.5 0.67 3.7 0.31m24.7-2.13c-0.3-0.21-0.6-0.07-1 0 0.3 0.24 0.7 0.17 1 0m-27.7-0.11c1.1-0.85 2.1-0.81 3.5-0.77-0.7-1.01-4.2-0.31-3.5 0.77m-7-0.71c-0.5-0.43-1.4-1.01-1.5-1.74 0.7 0.01 2 0.93 1.5 1.74m1-0.25c-0.2-0.63-0.9-1.9-1.6-2.06-1.2-0.26-2-0.38-3.2-0.17 0-0.55-0.3-1.87 0.5-2 0.1 0.62 0.8 0.59 1.2 0.59 1 0.01 1.7 0.53 2.5 0.89-0.5-0.5-1.1-0.89-1.7-1.24 1.1-1.07 5.2 2.51 2.3 3.99m25-0.39c-0.1-1.42 0.7-2.31 2-2.78 1.7-0.61 3.1-1.03 4.7-2.03 0.8-0.51 0.8-1.92 1-2.73 0.5 0.34 0.5 1.42 0.5 2 0.3-0.6 0.5-1.32 0.5-2 0.6 0.41 0.8 2.46 0.4 3.02-0.3 0.48-0.6 1.19-1.1 1.46-1.5 0.74-2.8 0.95-4.4 1.17s-2.3 1.13-3.6 1.89m-1.5 0.01c-0.7-1.17-1.3-2.54-0.9-3.94 0.4-1.47 1.7-2.57 3.3-2.58 1.5-0.01 2.9 0.05 4.4-0.25 0.6-0.12 1.2-1.01 0.8-1.54-0.2-0.35-0.3-0.71-0.7-0.75s-0.7 0.32-1 0.52c0.2 0.06 0.9 0.3 1 0.5 0.3 0.51-0.3 0.65-0.7 0.62-0.3-0.04-0.7-0.49-0.7-0.82 0-0.22 0-1.14 0.3-1.18 1-0.09 1.9-0.44 2.2 0.69 0.3 1.08 0.3 1.72-0.1 2.77-0.5 1.57-2.8 1.77-4.1 2.1-1 0.22-1.8 0.59-2.5 1.33-0.6 0.74-0.7 1.87-1.3 2.53m-13.8-2.17c-1.3 0.22-3.4 1.38-3.5-0.98-1.1 0.71 0.1 1.99 1 2.09s2.2-0.21 2.5-1.11m9.5 0.95c-0.1-0.29-0.2-0.6-0.5-0.75 0.1 0.3 0.3 0.54 0.5 0.75m-29.5-0.1c-0.3-0.42-0.9-0.56-1.3-0.92-0.5-0.45-0.9-0.98-1.5-1.32 0 0.7 0.5 1.11 1 1.54 0.6 0.59 0.9 0.59 1.8 0.7m10.3-0.55c0-0.33-0.3-0.38-0.5-0.5 0.1 0.24 0.1 0.58 0.5 0.5m23.7-0.63c0.9-0.81 1.8-1.63 3-1.91 0.8-0.19 2.3-0.35 2.5-1.37-0.3 0.03-1.9 0.83-1.5-0.24-1.6 0.01-3.9 0.17-4.5 2.02 0.7-0.25 1.3-0.74 2-1.12 0.6-0.41 1.5-0.4 2.2-0.4-0.7 0.39-1.5 0.52-2.2 0.94-0.6 0.35-2.1 1.18-1.5 2.08m12.2-2.81c1 0.3 2.2 1.16 3.2 1.11 0.6-0.03 1.3-0.31 1 0.62-0.6 1.73-4-0.5-4.2-1.73m-42.2 2.72c-0.4-1.06-1.7-1.49-2.8-1.49 0.4 0.31 1 0.25 1.4 0.53 0.4 0.32 0.8 0.85 1.4 0.96m22.8-0.37c0-0.33-0.3-0.38-0.5-0.5-0.1 0.34 0.2 0.38 0.5 0.5m-1-0.24c-0.1-0.42-0.4-0.8-0.8-1 0.1 0.44 0.4 0.77 0.8 1m-1.3-0.5c0.1-0.33-0.3-0.38-0.5-0.5 0.1 0.25 0.2 0.58 0.5 0.5m-10.1-9.7c0 0.33-0.1 0.66-0.2 1 0.9-0.44 2.7-2.09 3.8-1.52-0.3 0.27-0.6 0.44-0.9 0.56-0.1 0.04-0.8 0.1-0.9 0.2s0.1 0.63 0.1 0.75c0.1 0.22 0.9 0.84 0.9 0.85-0.2 0.69-0.9 1.08-1.4 1.52-0.8 0.61-1.4 1.3-2.1 2.03-0.6 0.73-1.1 1.51-1.6 2.32-0.3 0.47-0.6 1.34-1.2 1.58-0.7 0.29-1.8-0.56-2.5-0.77-0.7-0.22-1.4-0.57-1.2-1.46 0.6-1.79 2.2-3.59 3.5-4.9 0.8-0.86 2.4-2.46 3.7-2.16m34.1 8.58c0.1-0.68 0.8-1.61 1.5-1.76 0 1.19-0.3 1.66-1.5 1.76m-44.3-0.52c0.3 0.13 0.6 0.19 0.8 0.5-0.3 0.02-0.7-0.13-0.8-0.5m1.5-0.26c-0.9-1.17 0.8-3.38 1.3-4.46 0.8-1.81 1.6-3.64 2.4-5.49 0.7-1.78 1.5-3.52 2.1-5.32 0.6-1.65 0.8-3.44 1.6-5.01 1.3 0.7 1.3 3.14 1.6 4.35 0.2 1.06 0.4 2.13 0.6 3.18 0.2 0.97 0.7 2.01 0.7 3.01-0.1 0.97-1.7 1.29-2.4 1.55-1.3 0.49-2.4 1.13-3.3 2.17-1 1.02-1.7 2.14-2.5 3.3-0.6 0.89-1.1 2.12-2.1 2.72m7.5-47.29c1 0.51 1.5 1.54 1.8 2.55 0.3 1.25-1.3 1.58-1.5 2.7-0.1 0.96 1 1.95 1.1 2.94 0.1 1.14-1.3 1.61-1.8 2.5-0.9 1.38 1.6 2.73 0.5 4.4-0.3 0.41-0.9 0.55-1.3 0.92-0.4 0.51-0.7 0.71-0.5 1.38 0.1 0.56 0.4 1.06 0.7 1.57 0.6 1.18-0.4 1.97-1.3 2.57-1.1 0.71-0.8 1.73-0.4 2.74 0.4 1.02 0.8 2.17-0.4 2.82-1 0.58-1.9 1.09-1.8 2.44 0.2 0.96 1.2 2.23 0.4 3.04-0.6 0.5-2.5 0.92-2.5 1.71-0.1 0.96 0.1 1.88 0.4 2.79 0.2 0.61 0.6 1.18-0.2 1.53-0.5 0.28-1.1 0.48-1.7 0.74-1.1 0.49-1.7 0.92-1.4 2.26 0.1 0.58 0.2 1.17 0.3 1.76 0.1 0.68-0.3 0.85-0.8 1.27-0.6 0.56-2 0.93-2.8 1.21 0.9 0.46 2.1-0.29 2.9-0.59 2.9-0.99-0.2-4.27 1.9-5.26 0.8-0.39 2.2-0.51 2.7-1.43 0.5-1.1-0.5-2.45-0.6-3.57 0-1.25 1.7-1.22 2.4-1.9 0.6-0.6 0.6-0.65 0.5-1.49 0-0.6-0.4-1.15-0.6-1.7-0.5-1.19 0.3-1.79 1.4-2.26 0.5-0.23 1-0.52 1.5-0.62-0.2 3.37-1.6 6.51-2.9 9.57-1.3 2.89-2.2 6.44-4.1 8.96-0.9 1.13-1.9 1.47-3.3 1.52-0.7 0.03-2.4 0.11-2.5-0.98-0.1-1.57 1.5-3.48 2.2-4.74 1-1.75 1.9-3.51 2.7-5.38 1.6-3.9 3.2-7.81 4.4-11.86 1.2-4.07 2.2-8.21 2.9-12.4 0.4-2.12 0.6-4.25 0.9-6.38 0.2-1.6 0-3.95 0.8-5.33m34.3 46.32c0.2-0.33 0.6-0.49 1-0.5 0.1 0.63-0.6 1.14-1 0.5m-14.3 0.33c-1-1.08-2.2-2.06-3.4-3-0.5-0.38-1-0.72-1.4-1.18-0.4-0.43-0.4-1.08-0.8-1.46-0.5-0.51-1.7-0.84-2.4-1.07 0.2-0.2 0.5-0.36 0.8-0.5-0.6-0.27-1.2-0.44-1.8-0.74 1.8-1.43 5.6 1.23 7.1 2.17 1.1 0.69 3.8 4.76 1.9 5.78m2.3-1.02c-0.9-1.33-1.3-2.97-2-4.42-0.8-1.7-1.4-3.49-2-5.26-1.2-3.69-2.4-7.44-3.5-11.2-0.4-1.68-0.6-3.38-1-5.06-0.6-1.86-0.9-3.73-1.2-5.64-0.6-3.61-1.5-7.17-1.6-10.86 1 0.32 1.7 0.89 2.3 1.64 1.1 1.31-1.5 2.63-0.5 4.19 0.4 0.64 2 1.03 1.6 1.9-0.3 0.8-1.6 1.98-0.8 2.87 0.4 0.48 0.9 0.72 1.4 1.04 2.1 1.23-1.3 3.15-0.5 4.11 0.8 0.9 1.8 1.49 2.8 2.15 0.4 0.24-0.4 1.33-0.5 1.56-0.5 0.84-1.1 1.74-1.1 2.77 0.6-0.14 2.4 0.57 2.9 0.98 1.5 1.14-1.8 3.26-0.8 4.26 0.8 0.83 2 1.09 2.9 1.78 0.6 0.47-0.7 2.48-0.9 2.86-0.3 0.81-0.4 0.94 0.1 1.61 0.5 0.5 3.3 1.31 3.3 1.82 0 0.68-0.4 1.34-0.7 1.94-0.3 0.85-0.1 1 0 1.78 0.1 0.42-0.1 0.87-0.2 1.29 0 0.6 0.5 1.37 0 1.89m-3.5-44.48c0.6 0.08 0.8 0.26 1.2 0.66 0.8 0.69 0 1.54 0.4 2.26 0.5 0.7 1.1 1.29 1.5 2.03 0.5 0.71-1.1 1.78-0.4 2.85 0.3 0.46 0.7 0.66 1.1 1.04 0.6 0.55 0.5 0.86 0.4 1.6 0 0.45-0.3 0.9-0.4 1.36-0.2 0.73 0 0.96 0.5 1.51 0.4 0.37 0.9 0.58 1.2 1.01 0.9 1.09-0.1 2.62-0.5 3.7-0.2 0.49-0.1 0.39 0.2 0.58 1 0.45 1.9 0.82 2.6 1.63 0.7 0.86-0.4 2.04-0.5 2.94-0.1 0.84-0.1 0.91 0.6 1.42 0.4 0.33 0.9 0.61 1.3 0.91 0.9 0.6 1.5 1.24 1.2 2.35-0.2 0.56-0.4 1.05-0.4 1.64-0.1 0.82 0 0.94 0.6 1.5 0.8 0.7 2 1.03 2.8 1.69 0.6 0.45-0.7 2.78-0.8 3.15-1 2.33 3 1.25 3.1 2.56 0.2 1.54-0.7 2.59-1 4.05 0.9-0.06 1.7 0.29 2.5 0.48 0.2 0.05 0 0.52-0.2 0.58-1 0.38-2 0.51-2.6-0.57-3.9-6.8-6.9-14.09-9.2-21.55-1.2-3.75-2.3-7.51-3.4-11.29-0.5-1.79-0.9-3.59-1.2-5.42-0.2-1.3-1.3-3.41-0.6-4.67m6 43.72c-0.9-0.87-0.2-2.75 1-3.01-1.2-0.45-1.9 1.35-2.5 2.01-0.6-0.97 0.4-1.75 1-2.41 0.7-0.82 1.7-0.38 2.6-0.21 0.2 0.04 0.5 0.43 0.5 0.61 0.2 0.42-0.5 0.51-0.8 0.63-1.2 0.57-1.1 1.47-1.8 2.38m-43-1.27c0-1.84 1.8-3.75 2.6-5.31 1.1-2.02 2.1-4.11 3.1-6.18 2-4.06 3.4-8.32 4.6-12.66 1.3-4.41 2.5-8.75 3.1-13.3 0.2-1.3 0.3-5.64 2.4-5.32 1.3 0.19 0.8 1.76 0.7 2.63-0.2 2.11-0.3 4.21-0.7 6.31-0.6 4.14-1.5 8.21-2.6 12.24-1.1 3.82-2.4 7.55-4.1 11.18-1.7 3.73-3.2 7.75-5.7 11-0.4 0.46-1.1 1.02-1.6 0.57s-1.1-1.07-1.8-1.16m15.5 1.17c0.8-0.84 2.4-1.84 2.7-3.02-0.9 0.16-2.8 2.03-2.7 3.02m34.4-6.94c0.2-1.07 1.9-3.49 0.8-4.41-1-0.9-3.8-1.43-3.1-3.28 0.3-0.87 1.1-2.47 0.1-3.13-0.7-0.5-2.4-0.88-2.8-1.73-0.5-0.95 0.5-2.26 0.7-3.17 0.2-1.18-1.1-1.62-2-2.13-2-1.14 0.7-2.8-0.2-4.14-0.3-0.59-0.7-0.87-1.2-1.29-1.4-1-0.4-2.01-0.3-3.28 0.2-1.16-1.1-1.56-1.6-2.43-0.5-0.88 0.5-2.23 1-2.96 0.7 0.57 0.8 1.79 1 2.65 0.4 1.7 0.9 3.34 1.4 4.99 1.1 3.41 2.3 6.75 3.7 10.05 2.6 6.33 5.9 12.51 9.3 18.44 1.8 3.01-4.1 1.56-3.9 0.49 0.2-0.73 1.1-2.45 0.7-3.13-0.7-1.13-2.6-0.82-3.6-1.54m-0.4 6.01c-0.4-0.13-0.9-0.47-1.3-0.5-0.8-0.07-0.2-0.75-0.5-1.19s-0.8-0.61-1.2-0.9c-0.7-0.46-1.3-1.01-1.7-1.69-0.9-1.43-1.3-3.19-1.9-4.71-1.4-3.58-2.9-7.24-3.9-10.98-0.9-3.86-2-7.68-3-11.56-0.9-3.97-2.1-8.04-2.3-12.13 1.3-0.01 1.7 0.72 1.9 1.87 1.9 7.46 3.9 14.82 6.1 22.2 1 3.5 2.4 7.03 3.9 10.38 0.7 1.68 1.4 3.36 2.2 5 0.4 0.77 2.2 3.32 1.7 4.21m-38-41.55c0.3-0.25 0.9-0.46 1.3-0.51 1-0.12 0.3 2.91 0.2 3.49-0.2 1.87-0.6 3.73-1 5.58-0.9 3.95-1.9 7.84-3.1 11.7-2.3 7.22-5.6 14.7-9.9 20.92-0.8 1.15-1.4-1.02-1.5-1.62-0.2-1.11-0.5-2.16 0.7-2.75 0.4-0.21 1-0.22 1.4-0.55 0.7-0.66 0.8-1.04 0.7-2.02-0.1-0.95-0.2-2 0.7-2.59 0.9-0.54 2.4-0.56 2.3-1.85-0.1-0.77-0.9-2.52-0.3-3.15 0.7-0.68 2.4-0.95 2.7-1.9 0.3-0.89-0.5-2.26-0.5-3.21 0.1-0.92 2-1.27 2.5-1.91 0.7-0.89-0.1-2.15-0.4-3.09-0.7-2.01 2.6-1.88 2.4-3.61-0.2-1.54-2.2-3.31-0.5-4.57 0.8-0.55 1.6-0.92 1.4-1.92-0.1-0.75-1-1.39-0.9-2.19 0-0.79 1-1.44 1.5-1.89 0.7-0.57 0.6-1.58 0.3-2.36m78 5.84c-0.1 4.37-2.2 7.79-5.2 10.85-1.6 1.63-3.2 3.28-4.9 4.87-0.8 0.78-1.5 1.4-2.5 1.92-0.7 0.38-1.9 0.76-2.3 1.48-0.8 1.37-0.8 3.11-1.6 4.55-0.8 1.68-2.1 3.04-3.5 4.26-2.8 2.38-5.9 5.21-9.2 6.69-1.1 0.46-2.1 0.54-2.7-0.49-1.1-1.65-2.1-3.35-3-5.08-0.5-0.89-1-1.79-1.4-2.71-0.2-0.5-0.9-1.7-0.6-2.28 0.8-1.77 2.2-2.89 3.6-4.21 1.5-1.45 3-2.93 4.5-4.31 1.6-1.34 3.2-2.54 4.8-3.82 1.2-1.01 2.6-2.74 4.1-3.31 0.9-0.33 1-0.38 1.8-0.01 1 0.45 1.8 1.21 2.9 1.64 1 0.44 2.2 0.1 3.3-0.16 2.6-0.63 4.5-2.45 6.4-4.25 1-1.04 2.1-2.11 3.1-3.25 0.6-0.77 1.3-2.19 2.4-2.38m-82 35.43c0.3-1.39-1.4 0.29 0 0m-4.8-0.48c0.4-0.22 0.4-1.21-0.2-0.85-0.5 0.34-0.6 1.01 0.2 0.85m22-5.11c0 0.52-0.2 1.96 0.1 2.38 0.4 0.5 0.5 0.62 1.1 0.38 0.3-0.12 0.5-0.37 0.8-0.51 0 0.52 0.1 1.7-0.5 1.98-0.9 0.41-1.6 0.59-2.2-0.37-0.5-0.86-0.6-3.54 0.7-3.86m-14.4-28.43c-0.7 0.35-2 0.92-2.4 1.59-0.4 0.79 0.6 2.34 0.9 3.09 0.4 0.85 0.2 1.53-0.6 2.07-0.3 0.29-1.5 0.81-1.5 1.43 0.1 1.2 0.6 2.22 0.8 3.38 0.2 1.11-1.7 1.44-2.3 1.94-1.4 1.17 0.9 3.4-0.4 4.29-0.3 0.17-2.9 1.65-2.9 1.54 0.2 0.74 1.4 3.45 0.3 4.11-0.5 0.37-1.4 0.57-1.9 1.03-0.6 0.6-0.7 1.17-0.6 2.02 0.1 0.41 0.5 1.67 0 1.95-0.8 0.43-1.5 0.76-2.3 1.09-1.5 0.59-0.1 2.7-0.7 3.8-1-0.28-1.6-1.06-2.1-1.88-0.4-0.73 0.7-2 1.1-2.56 0.9-1.48 1.7-3.14 2.4-4.72 1.6-3.29 3.2-6.62 4.6-10 1.4-3.41 2.5-6.96 3.3-10.53 0.5-1.71 0.8-3.43 1.1-5.17 0.2-1.07 0-3.11 0.9-3.87 0.6-0.5 2-1.65 2.9-0.97 0.9 0.79-1 1.93-1.3 2.38-1.2 1.45 1 2.57 0.7 3.99m26.4 32.86c-0.4-0.66-1.3-0.8-2-0.99 0.3 0.67 1.4 0.92 2 0.99m-9.5-0.2c0.1-0.66 0.2-1.33 0.2-2 0-0.66-0.2-1.36 0-2 0.7 0.35 1.2 1.08 1.1 1.83-0.1 0.96 0 2.14-1.3 2.17m24-1.12c0.1-0.25-0.1-0.88-0.5-0.5s0.3 0.55 0.5 0.5m-21.5-0.14c0.3-0.23 0.7-0.18 1 0-0.3 0.23-0.7 0.17-1 0m-30.5 0.16c0.1-0.25-0.1-0.88-0.5-0.5s0.3 0.55 0.5 0.5m42.8-0.47c0-1.03 0.7-2.18-0.6-2.77-0.5-0.23-2.8-0.96-2.7-1.65 0.2-0.86 0.5-1.47 0.9-2.23 0.2-0.35 1.2-1.72 0.5-1.97-0.5-0.16-0.9-0.4-1.3-0.57-1.2-0.43-2.3-0.9-1.6-2.29 0.4-0.84 1.4-2.04 0.6-2.85-0.5-0.39-2.7-1.05-2.6-1.73 0.2-1.19 0.8-2.09 1.1-3.26 0.1-0.86-1.7-1.45-2.2-1.95-0.5-0.48-0.6-0.72-0.3-1.45 0.2-0.51 0.7-0.88 0.8-1.41 0.3-0.84 0.3-0.87-0.2-1.58-0.3-0.4-1-0.5-1.3-0.85-0.6-0.56-0.6-0.66-0.5-1.46 0.1-0.51 0.5-0.92 0.8-1.39 0.3-0.75 0.2-0.86-0.3-1.51-0.2-0.29-0.9-0.6-1.3-0.78-0.4-0.25-0.6-0.28-0.4-0.85 0.3-0.76 1.7-2.04 1.5-2.9-0.3-1.14-2-1.25-2.2-2.31-0.3-0.99 1.2-2.33 1.8-2.94 0.7 1.32 0.8 3.04 1.1 4.47 0.4 1.86 0.9 3.71 1.3 5.57 0.8 3.84 1.8 7.6 2.9 11.39 0.5 1.82 0.8 3.71 1.4 5.5 0.6 1.68 1.3 3.31 1.9 4.98 0.6 1.73 1.3 3.46 1.9 5.18 0.3 0.57 1.4 2.51 1 3.1-0.2 0.24-1.7 0.45-2 0.51m-10.4-15.7c0.8 0.59 1 1.88 1.3 2.78 0.3 1.35 0.8 2.65 1.2 3.98 0.5 1.48 0.9 2.96 1.4 4.45 0.3 1.23 1 2.45 0.9 3.76-1.1-0.01-2.4-1.05-3.5-1.46-1.1-0.42-2.6-0.35-3.6-0.95-1.4-0.84 0.3-4.49 0.7-5.61 0.6-2.29 1-4.67 1.6-6.95m-38.6 13.95c-1.4-1.17-2.5-2.65-3.4-4.17-0.8-1.15-2.3-2.66-2.4-4.05 0.6 0.37 1 1.05 1.4 1.65 0.5 0.8 1.2 1.47 1.8 2.25 0.6 0.84 2.9 3.12 2.6 4.32m53.2-1.03c0-0.43-0.4-0.82-0.8-0.57-0.3 0.25-0.2 0.71-0.2 1.08 0.4-0.06 0.7-0.31 1-0.51m-35.8 0.19c0-0.46 0-1.15-0.7-1 0.1 0.51 0 1.17 0.7 1m-5 0.03c0.2-0.3 0.4-0.56 0.5-0.91 0.1-0.27-0.8-0.31-1-0.34 0 0.53 0 0.97 0.5 1.25m-11.7 0.06c-1.3-2.38-3.3-4.25-4.9-6.44-0.3-0.43-2-4.13-0.2-3.35 1 0.46 1.6 2.02 2.3 2.87 0.8 0.92 1.5 1.86 2.2 2.78 0.8 0.96 2.9 3.6 0.6 4.14m29.5-0.91c-1.1-1.73-1-3.94-1.4-5.89-0.3-1.32-0.4-4.26-1.7-5.1 0 1.86 0.8 3.61 1 5.44 0.3 1.85 0.8 3.67 0.8 5.55-1.4-0.9-1.3-4.03-1.5-5.45-0.3-2.36-1.1-4.63-1.3-7 0-0.2 2.8-0.58 3.2-0.63 1.3-0.19 1.5 0.89 1.6 1.96 0.1 3.46 0.7 6.9 0.8 10.37-1.2-0.47-0.9-3.46-0.9-4.45-0.3-2.19-0.1-4.43-1.3-6.33-0.3-0.4-1-0.09-1.4 0.05 0.3 0.13 1.2 0.13 1.3 0.24 0.3 0.36 0.2 1.56 0.3 2.04 0.1 1.26 0.3 2.58 0.3 3.84 0 0.97-0.2 1.95 0 2.9 0.2 0.68 0.7 1.82 0.2 2.46m3.5-0.51c-0.6-1.08-0.3-2.9-0.2-4.09 0-0.93 0.2-1.86 0.2-2.79 0.1-0.94 0.2-3.93 1.7-3.78 1.6 0.16 0.4 3.4 0.2 4.23-0.4 0.94-0.6 1.9-0.8 2.86-0.2 1.06-0.1 2.85-1.1 3.57m1.2-0.26c0.1-1.81 0.6-3.58 1.1-5.32 0.2-0.82 0.4-1.65 0.6-2.48 0.1-0.62 0.6-1.79 0.2-2.41-0.2-0.28-0.9-0.66-1.2-0.64-0.4 0.02-1.2-0.1-1.5 0.15-1.1 0.95-0.6 3.79-0.7 5.08-0.2 1.92-0.5 3.69-0.5 5.63-0.5-0.62-0.3-1.82-0.2-2.57 0-1.22-0.1-2.45 0-3.68 0-0.9-0.3-5.59 1.1-5.84 1-0.17 2.3 0.09 3.1 0.69 0.5 0.4 0.8 0.57 0.7 1.25-0.2 1.92-0.7 3.76-1.2 5.63-0.3 1.24-0.3 3.72-1.5 4.51m13.3-0.32c0-0.46 0-0.9-0.5-1 0 0.59-0.3 1.1 0.5 1m7.5-1.04c0-0.11 0-0.5-0.1-0.5s-0.6-0.07-0.7 0c0 0.05 0 0.5 0.1 0.5h0.7m-5-2.47c0.1-0.31 0.2-0.66 0.2-1-0.3 0-0.7 0-1 0.01 0.1 0.5 0.1 1.16 0.8 0.99m-35.3 0.18v-1c-1.2 0.19-1.2 0.82 0 1m4.5-1.02c0-0.39-0.3-0.73-0.7-0.75 0 0.46 0.2 0.8 0.7 0.75m-15-0.17c-1.1-0.36-1.9-1.85-2.6-2.76-1-1.32-2-2.61-3-3.94-0.3-0.38-1.1-2.34 0-2.35 0.8-0.01 1.4 1.18 1.8 1.77 0.6 0.9 1.2 1.84 1.9 2.67 0.9 1.11 3.1 3.02 1.9 4.61m53.8-0.53c-0.7-1.17 0.9-2.63 1.6-3.34 1.3-1.3 2.7-2.59 4.1-3.85 1.8-1.68 3.7-3.21 5.6-4.87 0.7-0.69 1.6-1.2 2.4-1.88 0.8-0.76 1.6-1.58 2.7-2.05 0.3-0.14 1-0.46 1.2 0.04 0.2 0.4-0.2 1.04-0.5 1.31-2.8 2.88-6.3 5.04-9.3 7.64-1.4 1.21-2.7 2.55-4.1 3.83-1 0.92-2.3 2.89-3.7 3.17m-12.8-1.19c0.3-0.19 0.5-0.92-0.1-0.75-0.3 0.09-0.4 0.48-0.4 0.75 0.2 0 0.3 0.03 0.5 0m-34.3 0.18c0.1-0.11 0.1-0.5 0-0.5s-0.6-0.07-0.7 0c-0.1 0.05 0 0.5 0.1 0.5h0.6m46-0.99c-0.2-0.75-0.7-1.44-0.7-2.25 0.3 0 2 0.13 2.2-0.3 0.5-1.2 0.5-2.27 0.5-3.57 0-0.55 0.2-0.39 0.7-0.4 0.7 0 1.5 0.07 2.2 0.02 0.8-0.06 1.1-0.51 1.1-1.4 0-1.02 0-1.68 0.4-2.62 0.3-0.72 3.7-0.05 4.4-0.04-0.1-1.46-0.2-2.98 0.3-4.37 0.3-0.9 3.1-0.21 3.8-0.3 0.9-0.11 0.7-1.48 1.1-2.11 0.7 0.38 1.7 1.58 1.2 2.42-0.8 1.53-2.9 2.62-4.2 3.71-1.6 1.36-3.1 2.8-4.7 4.19-1.5 1.32-2.9 2.71-4.4 4.02-1 0.89-2.4 2.96-3.9 3m-4.4 0.02v-0.75c-0.1-0.04-0.8-0.03-0.8 0v0.75c0.1 0.09 0.6 0.01 0.8 0m-47.6 0.25c-1.4-1.52-2.5-3.24-3.8-4.82-0.9-1-2.4-2.74-1.7-4.16 0.4 0.36 0.5 1.45 1.1 1.5 0.9 0.09 1.7-0.01 2.6-0.02 0.2 0 0.1 4.35 0.1 4.75 1.2-0.04 2.3-0.26 3.5-0.27-0.3 1.05-0.8 2.45-1.8 3.02m11.8-2.06v-1c-1.2 0.19-1.2 0.83 0 1m14.2-0.32c0-1.1-0.3-2.14-0.4-3.23-0.2-1.08 0.1-2.28-0.3-3.3-0.5-0.99-3-0.7-3.8-0.7 0.1-3.67 1.5-7.28 2-10.9 0.2-1.75 0.3-3.54 0.5-5.3 0.1-1.18-0.4-3.59 0.7-4.38 0.5-0.4 1.1-0.35 1.4 0.34 0.5 1.37 0.1 3.16 0.1 4.6 0 2.11 0 4.2 0.2 6.31 0.1 1.79 0.1 3.52-0.1 5.31-0.1 0.97-0.3 2.9 0.7 3.51 0-3.34 0-6.69-0.1-10.02 0-1.69 0.1-3.31 0.3-4.98 0.1-1.61-0.5-3.24 0-4.83 0.2-0.58 0.4-1.02 1-0.7 0.7 0.33 0.9 0.48 0.9 1.27 0.7 6.46 2.1 12.75 3 19.16 0.2 0.76-0.4 1.27-0.7 1.93-0.3 0.87-0.5 1.99-0.6 2.91-1.6-0.21 0.2-3.28 0.4-4-1.6-0.39-4.8-1.37-4.7 1.35 0.1 1.15 0.8 4.8-0.5 5.65m27.3-4.9c0 0.89 0.1 2.06-0.1 2.93-0.2 1.48-1.6 1-2.6 0.56-0.3-0.14-0.1-1.12-0.1-1.44 0-0.51 0.7-1 1-1.37 0.6-0.75 1.3-1.39 1.9-2.03 1.5-1.36 3-2.64 4.4-4 0.7-0.7 7.9-7.61 8.6-6.62 0.7 0.9 0.8 1.99 0.3 3.01-0.5 0.86-2.3 0.12-3 0.17-2.8 0.18-0.5 4.94-3.1 4.6-0.7-0.09-2.6-0.47-2.9 0.2-0.6 1.03-0.4 2.02-0.5 3.17-0.1 1.27-3.2 0.82-3.9 0.82m-10.5 4.06c0.1-0.17 0.2-0.33 0.2-0.5-0.6-0.13-0.6 0.56-0.2 0.5m-24.3-0.12c-0.2-1-1.1-1.79-1.2-2.79-0.2-1.25 1.2-1.46 1.7-2.35 0.5-0.67 0.6-0.78 0.4-1.54-0.1-0.57-0.5-1.01-0.7-1.56-0.3-1.24 0.9-1.72 1.7-2.36 1.9-1.42-1.7-3.52 0.1-5.16 0.8-0.68 1.9-1.25 1.4-2.45-0.4-1.06-1.7-2.27-0.5-3.35 0.4-0.42 0.8-0.71 1-1.26 0.5-0.84-0.8-2.07-1-2.8-0.3-0.55-0.4-0.89 0.3-0.99 0.4-0.06 1.2-0.2 1.4 0.22 0.5 0.79 0.3 1.86 0.3 2.73 0 1.24-0.1 2.47-0.2 3.7-0.2 2.21-0.6 4.38-0.9 6.57-0.8 4.31-1.8 8.61-3.1 12.79-0.1 0.48-0.1 0.66-0.7 0.6m-2.2 0.01c0-0.13 0.1-0.67 0-0.75-0.1-0.04-0.7-0.03-0.8 0v0.75c0.1 0.08 0.7 0 0.8 0m35.7-0.69c0.2-0.31 0.2-0.65 0.3-1-0.4 0.05-0.7 0.07-1 0.25 0.2 0.44 0.1 0.9 0.7 0.75m-43.7-0.52c0.2-1.38-1.4 0.28 0 0m30-0.41c0.2-0.33 0-0.65 0-1-0.3 0.34-0.5 0.72 0 1m-37.8-0.05c0-0.13 0.1-0.67 0-0.75 0-0.04-0.7-0.03-0.7 0-0.1 0.04-0.1 0.71 0 0.75 0 0.09 0.6 0 0.7 0m21.5-0.61v-1.5c0.3 0.17 0.5 0.35 0.8 0.5v-1.25c0.3 0.41 0.2 0.99 0.2 1.5 0.2-0.13 0.5-0.29 0.8-0.25-0.2 0.77-1.1 1-1.8 1m-1.5 0.01c0.1-0.6 0.3-1.18 0.5-1.75 0.3 0.28 0.3 0.71 0.3 1.07 0 0.76 0 0.67-0.8 0.68m29.5-0.55c-1 0.36-1.5-2-1.4-2.6 0.3-1.28 2-2.28 2.9-3.06 1.5-1.26 2.9-2.53 4.3-3.79 1.5-1.24 3-2.4 4.4-3.6 1-0.8 2.3-2.39 3.7-2.02 1.4 0.36 1.3 1.5 0.4 2.37-1 1.01-2.2 1.77-3.2 2.7-1.3 1.08-2.5 2.22-3.7 3.28-1.3 1.11-2.6 2.3-3.8 3.51-1.1 1.04-2.3 2.41-3.6 3.21m-17.5 0.23v-1c0.3 0.27 0.3 0.73 0 1m-3.2-0.23c0-0.8-0.3-2.39 0.7-2.75 0 0.84 0 2.17-0.7 2.75m-1.5 0.01c-0.8-0.75-0.5-2.31-0.6-3.25 1.1 0.14 1.1 2.62 0.6 3.25m17.2-0.34v-0.7c0-0.08-0.4-0.11-0.5-0.05-0.1 0.08 0 0.58 0 0.7 0 0.1 0.4 0.06 0.5 0.05m-16.5 0.08c0-0.79-0.1-1.76 0.3-2.5 0.4 0.52 0.3 2.11-0.3 2.5m-15.2-0.67c0.1-0.31 0.1-0.65 0.2-1-0.2 0.03-1 0.07-1 0.33 0 0.52 0.2 0.78 0.8 0.67m11.5-0.31v-1.5c0.3 0.42 0.3 1.08 0 1.5m-22.5-0.13c0.6-0.34-0.3-0.62-0.5-0.75 0.1 0.31 0.2 0.55 0.5 0.75m53.9-0.78c0.1-0.1 0.1-0.5 0-0.5s-0.6-0.07-0.7 0c-0.1 0.05 0 0.5 0.1 0.5h0.6m-4.4 0.02c0.1-0.38 0-0.68-0.1-1.04-0.1-0.14-0.7-0.64-0.7-0.4-0.3 0.64-0.1 1.47 0.8 1.44m-10.3-0.2c0.2-1.16-0.9-0.56-1.3 0.01 0.5 0.2 0.9 0.2 1.3-0.01m-23.7-1.62c-0.4 0.03-0.8 0.36-0.8 0.75 0.4-0.02 0.7-0.36 0.8-0.75m30.2 0.34c0-0.35 0.4-1.32 0-1.52-0.6-0.38-1.2-0.95-1.3-1.72 1.1 0 2.1 0.34 3.2 0.23 1.2-0.12 0.8-4.26 1.1-4.26 1.2-0.01 2.3 0.31 3.5 0.26 0.8-0.04 0.9-0.15 1.2-0.9 0.5-0.92 0.3-2.04 0.8-2.99 0.6-1 2.2-0.34 3.1-0.48 0.5-0.08 0.8-0.43 1.2-0.83 0.2-0.28 0.2-0.97 0.6-1.12 0.6-0.21 1 0.62 1.1 0.94 0.3 0.67-2.1 2.22-2.5 2.52-1.4 1.26-2.9 2.56-4.3 3.79-1.5 1.17-3 2.14-4.3 3.44-1 0.97-2 2.42-3.4 2.64m-51 0.27c0.2-0.79-1-0.52 0 0m40.2-1.46c-0.2-0.35-0.6-0.43-1-0.24 0.2 0.31 0.7 0.42 1 0.24m-26.7 0.39c0-0.13 0.1-0.67 0-0.75-0.1-0.04-0.7-0.03-0.8 0v0.75c0.1 0.08 0.7 0 0.8 0m-10.5-0.2c0.9-0.56-0.3-0.93-0.8-1 0.1 0.51 0.1 1.18 0.8 1m69-8.11c2.3-0.79 4.3-2.6 6.2-4.14 1.9-1.6 4-3.35 5.7-5.22 3.6-4.01 6.7-8.86 8.7-13.86 1-2.67 1.8-5.51 2.6-8.27 0.8-2.85 1.1-5.84 1.6-8.76 1-5.64 0.5-11.45 0.4-17.14 0.8 0.63 0.5 1.74 0.6 2.64 0.1 1.42 0 2.85 0.1 4.27 0.1 2.92 0.1 5.88 0.1 8.81 0 6.05 0 12.11 0.1 18.16 0 2.87 0.3 5.9-0.3 8.73-0.5 2.71-1.4 5.45-2.7 7.88-1.2 2.24-2.7 4.41-4.4 6.31-1.7 1.94-3.5 4.12-5.6 5.64-1.5 1.12-4 2.19-6 1.76-1.5-0.34-2.9-1.92-4.2-2.85-1.1-0.8-2.9-2.43-2.9-3.96m-25.5 6.39c-0.2-0.3-0.5-0.37-0.8-0.5 0 0.13-0.1 0.67 0 0.75 0.2 0.18 0.7-0.08 0.8-0.25m12.5-0.07c0.2-0.31 0.2-0.66 0.2-1-0.3 0-0.6 0-1 0.01 0.1 0.5 0.1 1.16 0.8 0.99m-41.5 0.22c0.2-0.31 0.2-0.66 0.2-1h-0.7c0 0.4 0.2 0.75 0.5 1m-11.3-0.19c-0.2-0.35-0.6-0.43-1-0.24 0.2 0.3 0.7 0.42 1 0.24m57.8-0.31c0.2-1.38-1.4 0.29 0 0m-14.3-1.17c0.2-1.13 2.1-2.59 3.3-2.77 0 0.92 0.2 2.29-0.1 3.16-0.3 0.78-2.7-0.23-3.2-0.39m-7.2 0.29c0.1-0.29 0.2-1.8-0.5-1.25-0.2 0.13-0.2 0.58-0.2 0.76 0 0.45 0.3 0.56 0.7 0.49m13.5-1.07c-0.2-0.58-0.5-0.78-1-1-0.4 0.72 0.3 1.41 1 1m-34.3-0.07c0.6-0.34-0.2-0.62-0.5-0.75 0.1 0.3 0.3 0.54 0.5 0.75m17-1.09v-1c-0.5 0.24-0.9 1.22 0 1m25.5-0.89c0-0.33-0.2-1.54-0.8-0.93-0.7 0.69 0.3 0.86 0.8 0.93m-14.2 0.08c0-0.63 0.2-1.85 1-2.01-0.1 0.66-0.5 1.58-1 2.01m-1.3 0c0.1-0.52 0.2-1 0.7-1.25 0 0.53 0 1.42-0.7 1.25m-34 0.18c0.3-0.19 0.5-0.92-0.1-0.75-0.3 0.09-0.4 0.48-0.4 0.75 0.2 0 0.4 0.03 0.5 0m54.5-0.53c0-0.29-0.1-1.39-0.7-0.75-0.7 0.64 0.4 0.75 0.7 0.75m-14.8-0.68c0.2-1.22 2.7-2.71 3.8-3.02 0.5 0.94-0.1 2.29-0.5 3.13-0.5 0.85-2.6 0.07-3.3-0.11m-3.2 0.52c0.1-0.77 0.4-1.56 0.8-2.25 0.2 0.59-0.3 1.86-0.8 2.25m-6.2-0.47v-0.69c0-0.08-0.5-0.11-0.6-0.05v0.69c0.1 0.11 0.4 0.07 0.6 0.05m15.4-0.83c0.2-0.31 0.2-0.66 0.3-1h-0.7c0 0.41 0.1 0.76 0.4 1m-7.7 0.04c0.1-0.8 0.5-1.49 0.7-2.25 0.5 0.63-0.2 1.83-0.7 2.25m-34 0.18c0.2-0.31 0.2-0.66 0.2-1-0.6-0.15-0.7 0.54-0.7 1 0.2 0 0.4 0.03 0.5 0m35.3-0.68c0-0.81 0.6-2.3 1.4-2.51-0.2 0.85-0.7 2.05-1.4 2.51m-7.6-7.21c1.3 0.4 1.8 1.69 2.3 2.82 0.4 0.9 1.9 3.38 0.4 3.99-0.7 0.29-1.4 0.25-1.6-0.7-0.3-1.14-0.6-2.26-0.9-3.38-0.2-0.81-0.6-1.91-0.2-2.73m21.3 3.88c1.3 0.34 2.7 0.93 4.1 0.81 1-0.08 0.4-3.06 0.4-3.83 1.1 0.05 2.1 0.22 3.2 0.43 1.2 0.23 2.2 0.23 2.2-1.2 0.1-1.09-0.1-2.13-0.1-3.22 0-1.96 4.7-0.4 5.6-1.54 1.1-1.47-1.6-5.06 1-5.54 1.2-0.22 2.2 0.1 3.3-0.37 1-0.38-0.4-4.3-0.4-5.01 0.2-1.56 3.8-1.12 4.4-2.56 0.7-1.51-2.2-3.72-1-5.06 1-1.18 2.8-2.38 4.4-2.81-1.3 6.63-3.8 13.12-7.6 18.69-2 2.88-4.5 5.36-7 7.8-2.4 2.32-5.4 5.63-8.8 6.27-1 0.19-3.6-1.92-3.7-2.86m-26.3 2.89c-0.2-0.33-0.6-0.49-1-0.5v0.75c0.4-0.05 0.7-0.07 1-0.25m-32.7-0.08v-3.5c0.7 0.69 0.7 2.78 0 3.5m-1.3-0.74c0-0.93-0.2-2.14 0.3-3 0.5 0.61 0.4 2.53-0.3 3m49.7-19.51c0.3 2.59 2.1 4.45 3.2 6.7 0.5 0.98 0.3 2.02 0.4 3.08 0 1.35 0.4 2.5 0.9 3.74 0.2 0.55-0.2 0.69-0.7 0.91-1.5 0.7-3 1.3-4.5 1.99-1.4 0.68-2.9 1.97-4.5 2.22-0.7 0.1-0.8 0.24-1.3-0.23-0.9-1-1.5-2.74-1.9-4.04-0.4-1.18 0.3-3.03 0.7-4.18 0.4-1.6 1.2-2.15 2.2-3.33 1.1-1.2 2.1-2.44 3-3.75 0.5-0.85 1.4-2.85 2.5-3.11m-19.4 19.1c0.3-0.5-0.1-0.81-0.5-1 0 0.59-0.2 1.11 0.5 1m-15 0.08c0.3-0.33 0.9-1 0-1-0.8 0-0.4 0.7 0 1m34.2-0.43v-1c-0.3 0.28-0.6 0.51-1 0.76 0.7-2.43 4.3-3.37 6.5-3.54-0.2 0.92-1.4 1.46-2.1 1.89-1.1 0.63-2.1 1.64-3.4 1.89m-47 0.25v-1.5c0.5 0.31 0.5 1.16 0 1.5m50.5-1.02c0.1-0.7 0.7-1.1 1.2-1.39 0.4-0.21 1.8-1.07 1.8-0.3 0 0.51 0.1 1.94-0.5 1.93-0.9-0.02-1.6-0.1-2.5-0.24m-54.2 0.29c0-0.48 0.1-0.93 0.5-1.25 0.2 0.49 0.2 1.4-0.5 1.25m58.5-3.06c2-0.02 3.7-1.38 5.3-2.53 2.1-1.47 3.8-3.19 5.6-4.99 3.4-3.53 6.3-7.68 8.9-11.82 2.6-4.1 4.6-8.75 6-13.37 0.8-2.42 1.3-4.91 1.7-7.41 0.3-2.5 0.3-5.04 0.7-7.53 0.9 0.45 1.7 1.24 2 2.13 0.2 0.56 0.6 1.01 0.3 1.57-0.5 0.94-1.6 1.62-2.2 2.52-0.3 0.39 0.5 1.41 0.7 1.74 0.5 0.86 1 1.69 1.2 2.68 0.2 0.89-1.5 1.79-2.1 2.26-2.1 1.52 0.5 4.11 0.7 5.96 0 0.6 0.1 0.92-0.4 1.29-1 0.69-2.5 1.19-3.3 2.11-0.3 0.29-0.4 0.39-0.4 0.77 0.2 1.26 0.8 2.26 1.2 3.47 0.2 0.97 0.1 1.28-0.8 1.73-1.1 0.6-3.5 0.63-3.5 2.29 0 1.52 0.7 2.96 0.8 4.49-0.6 0-5-0.16-5 0.55 0 1.04 0.1 2.11 0.3 3.13 0.2 0.53 0.6 1.84 0 2.22-1.6 0.95-3.8-0.38-5.2 0.62-0.6 0.46-0.4 1.35-0.3 2 0.1 1.07 0 2.2 0 3.28-1.8-0.02-3.6-0.66-5.5-0.72 0 0.9 0.2 1.87 0.2 2.75-0.1 0.56-0.2 0.97-0.7 1.11-1.3 0.34-2.8-0.68-4-0.84-0.9-0.09-2.1-0.47-2.2-1.46m-48.8 2.51v-0.75c-0.6 0.31-0.6 0.44 0 0.75m27.8-0.9c0-0.11 0-0.5-0.1-0.5s-0.6-0.07-0.7 0c0 0.05 0 0.5 0.1 0.5h0.7m1.7-1.01c-0.5-0.33-0.9-0.64-1.4-1.04-0.7-0.7-0.1-0.98 0.5-1.58 0.7-0.71 1.5 1.91 0.9 2.62m-5 0.03c0-0.13 0.1-0.67 0-0.75 0-0.04-0.7-0.03-0.7 0-0.1 0.03-0.1 0.71 0 0.75 0.1 0.08 0.6 0 0.7 0m-20.5-0.65c0-0.35-0.1-0.69-0.2-1-0.4 0.23-0.5 0.61-0.5 1 0.2 0.01 0.5 0.01 0.7 0m41.5-6.71c1.1 0.22 3.3 2.1 3.5 3.23-0.4 0.02-1.3-0.01-1.5-0.37-0.4-0.53-0.6-1.1-1-1.62-0.2 0.95 0.2 2.21 1.1 2.55 0.9 0.35 2.1 0.59 3.1 0.2 5.1-2.05 9-7.15 12.1-11.48 3.4-4.69 6.8-9.63 8.9-15.02 1.1-2.67 2-5.43 2.5-8.26 0.5-3.11 0.3-6.25 0.7-9.37 0.4-3 0.1-6.12 0.1-9.14 0-3.14-0.2-6.25-0.3-9.38 0.9 0.18 1 1.34 1.2 2.1 0.1 1.18 0.3 2.5 0.3 3.69 0 3.32 0.1 6.64 0 9.95-0.2 3.15-0.1 6.37-0.6 9.49-0.5 3.16-1.3 6.41-2.3 9.42-2.2 6.07-5.3 11.61-9 16.83-2 2.7-3.9 5.32-6.4 7.59-2.1 2-4.4 4.12-7.2 5.28-0.8 0.37-2.2 0.32-3.1-0.08-1-0.51-1.7-1.43-2.1-2.55-0.3-0.99-0.2-2.06 0-3.06m-24.5 4.88c0.3-0.5-0.1-0.81-0.5-1 0 0.58-0.2 1.1 0.5 1m-13-0.19c0.1-0.58-0.1-0.75-0.7-0.75-0.2 0-0.3 0.82-0.3 1 0.4-0.05 0.7-0.06 1-0.25m9.5-0.3v-3.5c0.8 0.15 1.9 0.74 1.5 1.68-0.2 0.66-0.6 1.97-1.5 1.82m33.2-1.67c-0.3-0.34-0.9-0.76-0.8-1.25 0-0.67 1-0.97 1.5-1.34 0.4-0.34 0.6-0.79 0.9-1.17 0.4-0.41 0.9-0.65 1.3-1.02 0.9-0.76 1.2-1.79 2-2.55 0.4-0.38 0.8-0.8 1-1.31 0.2-0.39 0.3-0.9 0.7-1.15 0.7-0.52 2.5 0.36 2.5 1.24 0 0.73-0.8 1.44-1.3 1.91-0.8 0.82-1.5 1.69-2.3 2.53-1.5 1.6-3.2 3.73-5.5 4.11m5.5-10.78c-0.3 0.72-0.3 1.51-0.6 2.2-0.2 0.69-1.6 0.64-1.7 1.23-0.1 0.72 0.1 1.67-0.5 2.22-0.6 0.54-1.7 0.2-2.4 0.38 0.1 0.4 0.2 0.72 0.2 1.16-0.1 0.54-0.4 0.56-0.9 0.73-0.4 0.14-0.7 0.13-1.1 0.13-0.7 0-0.5 0.39-0.5 1-0.7-0.08-0.9-0.55-1.3-1.12-0.5-0.81 2.6-3.11 3-3.58 1.4-1.41 2.5-3.49 4.1-4.53 0.5-0.3 1.2 0.04 1.7 0.18m-10.7 6.56c1-1.8 2.9-3.16 4.3-4.64 0.8-0.82 1.6-1.67 2.5-2.4 0.1-0.11 1.1-0.86 1.1-0.39 0.1 2.07-2.3 3.63-3.5 5-0.9 0.94-2.9 3.62-4.4 2.43m-12.3-0.44c0.6-1.3 1.5-2.48 2.2-3.71 0.8-1.32 1.3-2.74 1.9-4.14 1.4-3.06 2.5-6.1 3.5-9.31 1.9-6.64 2.8-13.47 4-20.28 0.1-0.51 0.2-0.75 0.7-0.41 0.6 0.39 0.6 0.89 0.6 1.51 0 1.56-0.4 3.21-0.6 4.75-0.2 1.72-0.6 3.4-1.1 5.08-0.9 3.58-1.5 7.19-2.7 10.72-1.1 3.34-2.4 6.58-4 9.68-0.8 1.38-1.6 2.7-2.4 4.03-0.4 0.58-1.2 2.24-2.1 2.08m-3 0.02c-0.6-1.16 0.7-2.77 1.2-3.75 0.8-1.52 1.5-3.06 2.1-4.66 1.2-3.47 2.2-7.04 3-10.64 0.8-3.52 1.5-7.08 2.1-10.64 0.3-1.79 0.7-3.58 0.9-5.39 0.2-1.66 0.3-3.71 1-5.23 2.5 1.35 1.3 5.13 0.9 7.27-0.7 4-1.5 7.96-2.5 11.89-1 3.92-2 7.88-3.6 11.63-0.7 1.79-1.6 3.54-2.4 5.28-0.7 1.4-1.3 3.34-2.7 4.24m23.9-24.38c-0.5 1.08-2.3 0.7-3.3 0.97-1.2 0.34-3 1.16-3.4 2.44-0.3 0.78 0.1 1.79 0.3 2.54 0.4 1.19 0.7 2.39 1 3.59 0.6 2.34 1 4.84 0.5 7.24 0.5-0.02 1-0.13 1.4-0.2 0.9-0.11 0.8 0.42 0.8 1-0.1 0.75-1.2 1.63-1.7 2.19-0.8 0.97-1.8 1.88-2.7 2.75-0.8 0.72-1.9 1.84-2.8 0.73-1.3-1.65-2.3-4.03-2.5-6.14-0.2-1.45 0.8-2.98 1.3-4.26 0.7-1.58 1.5-3.14 2-4.79 0.5-1.44 0.9-2.9 1.4-4.35 0.3-1.2 0.6-2.65 1.6-3.48 0.5-0.46 1.3-0.89 2-1.03 1.1-0.23 3.1 0.1 4.1 0.8m-21.9 23.62c0.2-1.45 1.2-2.74 1.8-4.07 0.7-1.53 1.3-3.07 2-4.61 1.3-3.23 2.3-6.49 3.1-9.86 0.9-3.37 1.6-6.77 2.3-10.19 0.3-1.7 0.6-3.4 0.9-5.11 0.2-1.42 0.3-3.03 0.8-4.37 0.2-0.5 0.8-0.49 0.8 0.11 0.3 1.79-0.1 3.52-0.4 5.29l-0.9 5.31c-0.6 3.46-1.3 6.92-2.2 10.31-0.9 3.17-2 6.32-3.3 9.33-0.6 1.47-1.3 2.92-2.2 4.29-0.7 1.18-1.5 2.78-2.7 3.57m3.5-0.27c0.4-1.25 1.4-2.42 2-3.54 0.8-1.36 1.5-2.73 2.1-4.18 1.3-3.06 2.4-6.24 3.4-9.42 0.9-3.05 1.4-6.15 2.1-9.26 0.4-1.48 0.7-2.96 1-4.46 0.2-1.36 0.1-3.21 0.7-4.45 2.4 0.75 1.4 3.79 1.1 5.51-0.8 3.67-1.6 7.33-2.5 10.98-0.9 3.47-2.4 6.78-3.9 9.98-0.9 1.74-1.8 3.51-2.9 5.11-0.8 1.21-1.8 2.95-3.1 3.73m-10.2-1.95c-0.4-1.73 0-3.35 1.4-4.46 0.5-0.31 1.6-0.76 2.1-0.29 0.7 0.75 1.1 1.17 1.3 2.2 0.2 0.82 0.2 1.58-0.1 2.37-0.2 0.55-1 1.56-1.7 1.53-1-0.05-0.4-1.29-0.9-1.75-0.6-0.54-1.5 0.39-2.1 0.4m-2-1.24c-0.6-0.32 0.1-1.78 0.2-2.18 0.5-1.28 0.8-2.62 1.2-3.92 0.4-1.49 0.5-3.05 0.9-4.56 0.4-1.67 0.7-3.37 1-5.07 1.1-6.68 1.9-13.46 2.2-20.25 0.1-1.29 0.4-2.74 2-2.81 0 1.72-0.3 3.42-0.4 5.14-0.1 1.77-0.1 3.56-0.4 5.32-0.4 3.45-0.6 6.95-1.3 10.4-0.6 3.67-1.3 7.31-2.3 10.9-0.5 1.62-1 3.2-1.5 4.8-0.2 0.61-0.7 2.4-1.6 2.23m-1.5-1.02c-0.4-0.44-0.6-0.59-0.5-1.22 0.2-1.43 0.8-2.79 1.1-4.2 0.3-1.67 0.7-3.34 1.1-5.02 0.6-3.1 1-6.4 1.2-9.55 0.2-3.09 0.5-6.16 0.9-9.23 0.1-1.65 0.2-3.33 0.4-4.98 0.1-1.32-0.3-2.95 0.1-4.2 0.2-0.47 0.3-1.11 0.9-1.09 0.5 0.01 1 0.51 1.1 0.9 0.3 1.44 0 3.17-0.1 4.63-0.1 1.68-0.4 3.35-0.4 5.04 0 3.39-0.7 6.86-1.1 10.23-0.4 3.54-1.2 7.04-1.9 10.55-0.3 1.66-0.6 3.32-1.1 4.94-0.4 1.12-0.6 2.59-1.7 3.2m38.7-0.17c-0.5-1.52-1.1-2.87-1.4-4.46-0.4-1.89-0.6-3.76-0.6-5.68 0-3.71 0.4-7.26 1.5-10.81 1.1-3.54 2.6-6.75 4.9-9.64 2.1-2.51 4.7-5.71 7.9-6.65 0.7-0.2 0.8-0.08 0.8 0.61 0 0.59-0.1 1.12-0.6 1.5-0.6 0.49-1.3 0.78-1.9 1.16-0.8 0.46-1.6 1.13-2.3 1.73-1.3 1.15-2.4 2.65-3.4 4.1-2.1 2.98-3.4 6.4-4.4 9.87-1 3.52-1.2 7.35-0.6 10.95 0.2 1.67 0.6 3.3 1 4.94 0.3 0.93 0.3 2.21-0.9 2.38m-52.1-0.62c-0.1-0.04-0.8-0.1-0.9-0.25-0.2-0.42-0.4-0.83-0.7-1.25-0.2-0.38-0.1-1.53 0.1-1.89 0.5-0.8 1-1.07 1.7-1.57 0.6-0.38 1.6 0 2.2 0.12 0.4 0.06 1.3 1.19 1.3 1.51 0.1 0.75 0.3 1.57-0.2 2.24-0.6 0.76-1.3-0.28-1.9-0.35-0.8-0.1-1 1.12-1.6 1.44m50.1-0.62c-0.7-0.53-0.4-1.76-0.3-2.5 0.7 0.39 0.7 1.95 0.3 2.5m-1.8-0.24c-0.1-0.6-0.2-1.14-0.2-1.75-0.5 0.25-0.8 0.79-1 1.26-0.2-0.16-0.4-0.47-0.4-0.72-0.2-0.47-0.7-0.16-1.1-0.08-0.7 0.14-0.5-1.56-0.5-2.04 0-0.17 1.5-0.59 1.7-0.64 1-0.23 1.8 0.27 2.8-0.29-0.1 0.8-0.5 1.53-0.6 2.33-0.1 0.63-0.1 1.53-0.7 1.93m-26.2-0.36c-0.3-0.55 0.3-2.26-0.4-2.51-0.8-0.32-1.5 1.35-2.4 0.71-0.6-0.45-0.6-2.01-0.4-2.69 0.2-1 0.9-1.95 1.8-2.44 0.8-0.43 1.8-0.72 2.6-0.17 1 0.71 1.2 1.23 1.5 2.45 0.3 1.7-0.9 4.33-2.7 4.65m22-1.12c-0.8-0.65-0.5-2.37-0.5-3.26 0.1-0.95 0.2-1.88 0.2-2.83 0-0.4-0.2-4.16 0.3-4.16s0.4 0.04 0.4 0.55c0 1.77 0 3.58 0.1 5.35 0.1 1.3 0.5 3.29-0.5 4.35m-1.8-0.49c-0.4-0.77 0-1.9 0-2.73v-5.6c0.1-0.29 0-1.49 0.2-1.67 0.6-0.44 0.6 0.74 0.6 1v2.99c0 0.65 0.6 6.19-0.8 6.01m5.3-0.28c-0.1-0.34-0.1-0.9-0.3-1.17-0.1-0.15-0.7-0.46-0.8-0.22-0.2 0.83 0.2 1.43 1.1 1.39m8.2-1.04c-0.7-1.09-0.7-1.83-0.5-3.1 0-0.74 0.3-1.57 1-2.03 0.6-0.51 1.4-0.19 1.7-1.13 0.1-0.48-0.8-0.66-1.2-0.44-0.3 0.19-0.7 0.94-1 0.94-0.4 0.01-1.5 0.22-1.8 0-0.5-0.39-0.9-0.58-1-1.2-0.2-0.71-0.2-1.22-0.2-1.95 0.1-0.85 0.9-2.41 1.9-2.47 0.5-0.04 1.1-0.04 1.6-0.03s1.1-0.55 0.7-0.9c-0.8-0.85-2.1 0.29-2.6-1.09-0.2-0.56-0.4-1-0.4-1.59 0.1-0.57 0.6-1.1 0.9-1.58 1.2-1.7 3.3 0.78 4.1-0.16 0.8-0.92-1.7-1.13-2-1.72-0.1-0.5-0.5-1.18-0.5-1.71 0.1-0.71 0.1-1.15 0.4-1.79 0.2-0.46 1-0.89 1.4-1.23 0.3-0.24 0.8-0.34 1.1-0.18 0.3 0.17 1.5 0.53 1.6 0.85 0.1 0.29 0.4 1.31 0.7 1.42 0.6 0.22 1.1 0.15 0.9-0.71-0.3-1.01-1-1.78-0.8-2.9 0.1-1.07 0.3-2.23 1-3.1 0.3-0.4 0.8-0.74 1.3-0.97 0.5-0.27 0.8-0.45 1 0.21 0.3 1.25-0.1 2.54-0.2 3.8 0 1.44 0 2.85-0.4 4.25-0.2 0.64-0.6 0.88-1.2 1.22-0.9 0.58-1.7 1.25-2.5 1.98-1.7 1.56-2.5 3.98-2.5 6.21-0.1 1.68 0.7 3.12 1.2 4.69 0.2 0.87-0.7 2.4-1.1 3.09-0.7 1.14-1.4 2.61-2.6 3.32m-10.7-1.45c0.1-0.69 0.2-1.3 0.2-2 0.6 0.09 0.8 0.73 0.9 1.22 0.1 0.11 0.2 0.78 0.1 0.78h-1.2m2.7-0.26c0-1.3 0.8-2.27 1-3.51-0.9 0.01-1.6-0.22-2.5 0.01-1.1 0.27-0.9-1.01-0.9-1.75 0-0.33 0-0.78 0.1-1.1 0-0.32-0.1-0.4 0.3-0.4 0.3 0 0.2 0.05 0.3 0.34 0.3 0.72 0 1.45 0.4 2.16 0.6-2.12 0.5-4.3 0.8-6.46 0.1-0.72-1.3-1.94-1.8-2.26-0.8-0.47-2.7-0.41-2.6-1.77 0.1-2.25 1.6-4.39 2.8-6.23 0.6-0.9 1.2-1.77 1.8-2.69 0.5-0.9 1.3-2.41 2.4-2.62-0.1 1.33-0.5 2.68-0.5 4 0.8-0.34 1.4-0.82 2.1-1.27 0.3-0.25 1.7-0.74 1.7-1.24 0-0.35-0.3-0.3-0.5-0.56-0.4-0.52 0-1.41 0.2-1.94-0.4 0.22-0.8 0.54-1.2 0.75-0.8 0.37-0.8 0.24-1-0.55-0.3-1.17 1-2.14 1.7-2.88 1.2-1.34 2.5-2.65 3.8-3.84 1.2-1.05 2.5-1.94 3.9-2.7 1.2-0.67 2.9-1.91 4.4-1.93 1.3-0.02 0.5 5.63 0.4 6.42-0.1 0.88-2.2 1.56-2.9 1.81-0.6 0.22-0.7-0.62-0.9-1.12-0.4 0.58-0.9 2.2-1.8 2.23-0.4 0.02-0.8 0.04-1.2 0.03 0.1 0.45 0.5 1.19 0.3 1.61-0.9 1.74-2.3 3.14-3.4 4.74-1 1.55-2.3 3.33-2.9 5.09-0.2 0.58-1 0.14-1.4-0.16 0 0.85 0.1 1.71-0.2 2.52-0.2 0.62-1.3 0.8-1.3 1.24 0 0.4 0.2 0.17 0.4 0.42 1.2 1.21-0.2 2.59-0.3 3.97-0.1 0.86-0.1 1.73-0.2 2.59 0 0.23 0.1 1.35-0.1 1.53 0 0.05-0.5 0.02-0.5-0.04 0-2.02 0.2-3.94 0-5.96-0.7 0.92-0.8 2.08-0.8 3.19 0.1 1.35 0 2.71 0.1 4.06 0.4-0.15 0.8-0.37 1.2-0.51v2.98c0.1 0.96-0.1 1.83-1.2 1.8m-6.7-1.71c0-0.53-0.7-4.75 0.2-4.75 0.5 0 0.2 3.78 0.2 4.36 0 0.45 0 0.4-0.4 0.39m-16.8-1.17c0-0.74-0.2-2.62-1.2-1.54-0.8 0.83-1.7 0.83-2.1-0.36-0.7-1.81-0.5-4.65 1.6-5.62 5.7-2.67 5.6 7.59 1.7 7.52m35.7-2.68c-1.2-1.66-1.2-4.42-0.6-6.31 0.6-1.92 2.4-5.18 4.8-4.96-0.1 1.08-1.4 1.53-2.1 2.26-0.8 0.88-1.5 1.82-1.8 2.99-0.3 1.08-0.4 2.24-0.1 3.33 0.2 0.79 0.7 2.1-0.2 2.69m-20.2-1.65c0-0.25-0.3-0.58-0.3-0.75 0.2-0.55 2.1-1 2.5-1.17 1.1-0.4 2.1-0.18 3.1 0.44 0.3 0.19 0.4 0.09 0.4 0.48 0 0.2-0.2 0.36-0.3 0.47-0.7 0.45-1.9-0.06-2.6-0.1-1-0.05-1.8 0.59-2.8 0.63m30.5-0.66c-0.6-0.61-0.8-1.58-1.2-2.34-0.3-0.71-1.2-2.4-0.6-3.13 0.8-0.91 1.8-1.94 3-2.29 0 1.5-0.2 2.94-0.4 4.42-0.1 1.07-0.1 2.48-0.8 3.34m-9.3-0.2c-0.3-1.37-0.1-2.5 0.1-3.87 0.2-0.89 1.5-2.48 2.4-2.64-0.1 0.84-0.9 6.8-2.5 6.51m-21.7-0.64c0.2-1.29 2-2.33 3.2-2.52 1.1-0.17 3-0.26 4.1 0.15 0.7 0.29-0.8 1.06-1.1 1.13-1 0.26-2 0.04-3 0.16-1.2 0.15-2 1.09-3.2 1.08m-12.7-2.44c-0.7-0.16-0.6-1.67-1.3-1.88-1-0.29-1.3 2.34-2.7 1.06-1.6-1.48-0.7-4.22 0.6-5.5 0.7-0.69 1.7-1.26 2.7-0.96 1.2 0.34 1.9 0.84 2.4 1.96 0.5 1.26 0.3 3.22-0.5 4.34-0.4 0.59-0.6 0.7-1.2 0.98m12.6-1.81c-0.5-0.9 0.1-1.98 0.3-2.9 0.1-1.13 0.4-2.23 0.6-3.36 0.2-1.11 0.4-2.24 0.5-3.36 0.2-1.11-0.1-2.23 0-3.38 0.2-1.08 0.8-1.94 1.8-2.44 0.8-0.42 2.4-0.15 2.5-1.25 0.2-1.22 0.4-2.05 1-3.15 0.6-1.23 2.5-0.96 3.6-1.34 1.1-0.42 1.5-2.6 2.2-3.51 0.3-0.51 1.5-0.89 2.2-0.89s1.5-0.11 2.2 0.24c0.5-1.65 1.4-4.91 3.9-4.23 0.5 0.15 1.1 0.29 1.6 0.5 1 0.4 1.7-3.12 3.1-1.84 0.6 0.52 0.5 2.38 0.4 3.06-0.2 0.7-0.1 1-0.7 1.43-1 0.78-2.6 1.07-3.7 1.73-1.4 0.8-2.7 1.76-3.9 2.77-2.4 1.93-4.6 4.08-6.5 6.46-1.9 2.33-3.7 4.92-5.2 7.49-0.8 1.33-1.4 2.79-2.1 4.18-0.4 0.87-0.6 2.22-1.5 2.73-0.7 0.44-1.4 0.82-2.3 1.06m32.3-3.91c-0.9-1.06-1.7-2.2-2-3.55-0.2-1.07 1.5-2.41 2.4-2.7 0 1.19 0 2.42 0.1 3.61 0 0.75 0.2 2.13-0.5 2.64m-45.6-4.27c-0.2 0.84-0.8 2.12-1.8 1.91-0.4-0.09-0.9-0.91-1.2-1.23-0.3-0.33-0.4-0.92-0.4-1.36-0.1-1.28 0.2-2.22 0.8-3.3 0.7-1.11 1.8-1.33 2.9-1.71 0.9-0.28 2.1 0.39 2.7 1.03 0.8 0.96 1 1.84 1 3.08 0 0.94-0.1 2.29-0.7 3.05-0.2 0.24-0.9 0.86-1.2 0.92-0.6 0.12-0.8-0.45-1-0.88-0.2-0.62-0.5-1.11-1.1-1.51m23-0.37c-0.6 0.21-1 0.82-0.9 1.5 0.9 0.03 1.4-0.65 0.9-1.5m1.8 0.74c0.2-0.29 0.2-0.6 0.2-0.92 0.1-0.29-1.8-0.58-1.2 0.43 0.1 0.14 0.8 0.46 1 0.49m-1.8-1.49c-0.1-0.58-0.4-0.78-1-1-0.4 0.73 0.3 1.42 1 1m22.8-2.37c-0.9-0.91-1.6-1.74-2-2.97-0.3-0.91 1.4-2.03 2.2-2.03 0.1 1.18 1 4.12-0.2 5m-32-0.08c-3-0.6-0.5-3.85 0.5-5.1 3.2-3.91 6.8-7.44 10.8-10.51 2-1.53 4-2.99 6.2-4.24 2.1-1.22 4.3-2.39 6.8-1.95 0.4 0.08 0.7 0.58 0.6 1.01-0.1 0.64-2 2.08-2.6 2.36-0.6 0.3-1.2 0.03-1.9 0.02-0.8-0.01-1.5 0.34-2.2 0.81-1 0.66-1.5 1.63-2.2 2.55-0.4 0.54-1.2 0.47-1.8 0.5-0.8 0.04-1.4 0.35-2 0.79-0.5 0.42-1 0.96-1.3 1.59-0.3 0.5-0.5 1.32-1.1 1.57-1.1 0.5-2.2 0.59-3.2 1.38-1.2 0.93-1.5 2.19-2 3.53-0.5 1.05-1.9 1.3-2.7 2.05-1 1.03-1.3 2.38-1.9 3.64m-5.3-10.22c0.2-1.05 2-3 3.1-3.21 0.5-0.11 0.4 0.18 0.5 0.63 0.3 1.35 0.5 2.74 0.9 4.05 1.3-0.45 2-1.89 3.2-2.27 0.8 1.7-0.4 3.22-1.4 4.51-1 1.3-1.7 2.93-3.1 3.9-0.7 0.49-1.6 0.17-1.9-0.63-0.3-0.66-0.1-1.44-0.1-2.12 0.1-0.91 0.1-1.92 0-2.82-0.2-1.02-0.4-1.44-1.2-2.04m-6.7 5.53h-1c-0.5 0-0.4 1.24-1 1.55-0.5 0.25-0.9 0.53-1.4 0.08-0.4-0.37-0.8-0.82-0.9-1.4-0.2-1.26-0.1-2.12 0.3-3.31 0.6-1.19 1.8-1.43 2.9-1.63 1-0.18 2 0.38 2.7 1.03 1 0.96 1.9 2.91 1.5 4.34-0.3 0.85-0.2 0.98-1 1.32-0.5 0.19-1 0.58-1.4 0.14-0.5-0.51-0.7-1.39-0.7-2.12m5.5 1.48c-0.7-1.92-2-4.11-3.4-5.61-1.5-1.63-4-1.79-5.7-0.39-0.8 0.66-1.8 1.64-2.8 1.94-0.6 0.16-0.7 0.13-0.8-0.45-0.3-1.18 0.3-2.02 0.8-3.07 0.3-0.78 0.8-2.59 1.6-3 0.8-0.38 2.4 0.41 3.1 0.66 1.2 0.4 2.4 0.84 3.5 1.31 1.2 0.47 2.4 0.97 3.5 1.5 0.5 0.21 1.6 0.53 1.7 1.13 0.1 0.87 0.2 1.67 0.2 2.56 0 1.14-0.3 3.36-1.7 3.42m35.2-0.44v-5c0.8 0.4 2.2 1.64 2.3 2.56 0.1 1.1-1.3 2.1-2.3 2.44m3-3.01c-0.8-0.77-1.1-1.38-1.6-2.38-0.3-0.74 1-1.68 1.6-1.87 0.4 0.83 0.6 3.45 0 4.25m-3-2.99v-4.25c0.9 0.5 1.5 1.3 1.8 2.33 0.2 0.75-1.2 1.79-1.8 1.92m-25.3-0.37v-1.5c1.2 0 1.1 1.37 0 1.5m-3.7 0.02c-0.1-0.25-1-4.4-0.5-4.22 1 0.35 1.9 0.88 2.7 1.39 0.6 0.33 0.5 0.38 0.2 0.89-0.5 0.73-1.5 1.77-2.4 1.94m-4.8-2.47c0-0.3 0.1-3.5 0.4-3.5 0.4 0 0.7 0.17 1.1 0.33 1.9 0.82-0.1 3.13-1.5 3.17m35.5-0.94c-0.6-0.35-1.3-1.8-0.2-2 0 0.61 0.6 1.44 0.2 2m-36.1-16.56c0.9 0.17 1.3 0.24 1.8 1.06 1.2 2.23 2.3 4.62 3.2 7.01 0.9 2.37 2.1 5.08 2.1 7.64-1.2-0.03-2.5-1.05-3.6-1.57-1.1-0.48-2.2-0.93-2.6-2.1-0.6-1.7-0.3-3.8-0.4-5.56 0-2.17-0.5-4.29-0.5-6.48m34.3 14.32c-0.1-0.77-0.2-1.46-0.2-2.25 0.7 0.39 1 1.78 0.2 2.25m-43.5-2.52c0-0.46-0.1-0.96-0.5-1.25-0.2 0.53 0.2 0.92 0.5 1.25m9.2-12.8c0.3-0.46 0.7-0.91 1.3-1.01-0.1 0.68-0.6 1.03-1.3 1.01"/>
</g>
</def>
<path d="m1.059 0.47963c0 3.78 3.09 6.87 6.87 6.87h152.85c3.76 0 6.86-3.09 6.86-6.87v-228.4c0-3.78-3.1-6.87-6.86-6.87h-152.85c-3.781 0-6.871 3.09-6.871 6.87v228.4z" stroke="#000" stroke-width="2.5009" fill="#fff"/>
<g id="d">
<path stroke="#000" d="m9.7438 3.2372h131.5" fill="none"/>
<path stroke="#000" d="m159.41-53.544v-177.64" fill="none"/>
<use y="218.664993" x="713.263977" xlink:href="#a" transform="matrix(-2.4 0 0 -2.4 -2270.4 -1429.2)"/>
<line y2="-168.5" stroke-width="7.25" y1="-59.907" stroke="#000" x2="119.76" x1="49.839"/>
<g transform="matrix(.99951 -.031411 .031411 .99951 -1693.4 -673.49)">
<g fill="#fff">
<circle cx="1725.3" cy="664.83" r="2.2"/>
<circle cx="1728.6" cy="660.07" r="2.2"/>
<circle cx="1731.9" cy="655.31" r="2.2"/>
<circle cx="1735.2" cy="650.55" r="2.2"/>
<circle cx="1738.4" cy="645.79" r="2.2"/>
<circle cx="1741.7" cy="641.03" r="2.2"/>
<circle cx="1745" cy="636.27" r="2.2"/>
<circle cx="1748.3" cy="631.51" r="2.2"/>
<circle cx="1751.6" cy="626.76" r="2.2"/>
<circle cx="1754.8" cy="622" r="2.2"/>
<circle cx="1758.1" cy="617.24" r="2.2"/>
<circle cx="1761.4" cy="612.48" r="2.2"/>
<circle cx="1764.7" cy="607.72" r="2.2"/>
<circle cx="1767.9" cy="602.96" r="2.2"/>
<circle cx="1771.2" cy="598.2" r="2.2"/>
<circle cx="1774.5" cy="593.44" r="2.2"/>
<circle cx="1777.8" cy="588.68" r="2.2"/>
<circle cx="1781.1" cy="583.92" r="2.2"/>
<circle cx="1784.3" cy="579.17" r="2.2"/>
<circle cx="1787.6" cy="574.41" r="2.2"/>
<circle cx="1790.9" cy="569.65" r="2.2"/>
<circle cx="1794.2" cy="564.89" r="2.2"/>
</g>
<circle cx="1725.3" cy="664.83" r="0.7"/>
<circle cx="1728.6" cy="660.07" r="0.7"/>
<circle cx="1731.9" cy="655.31" r="0.7"/>
<circle cx="1735.2" cy="650.55" r="0.7"/>
<circle cx="1738.4" cy="645.79" r="0.7"/>
<circle cx="1741.7" cy="641.03" r="0.7"/>
<circle cx="1745" cy="636.27" r="0.7"/>
<circle cx="1748.3" cy="631.51" r="0.7"/>
<circle cx="1751.6" cy="626.76" r="0.7"/>
<circle cx="1754.8" cy="622" r="0.7"/>
<circle cx="1758.1" cy="617.24" r="0.7"/>
<circle cx="1761.4" cy="612.48" r="0.7"/>
<circle cx="1764.7" cy="607.72" r="0.7"/>
<circle cx="1767.9" cy="602.96" r="0.7"/>
<circle cx="1771.2" cy="598.2" r="0.7"/>
<circle cx="1774.5" cy="593.44" r="0.7"/>
<circle cx="1777.8" cy="588.68" r="0.7"/>
<circle cx="1781.1" cy="583.92" r="0.7"/>
<circle cx="1784.3" cy="579.17" r="0.7"/>
<circle cx="1787.6" cy="574.41" r="0.7"/>
<circle cx="1790.9" cy="569.65" r="0.7"/>
<circle cx="1794.2" cy="564.89" r="0.7"/>
</g>
<g font-family="Bitstream Vera Serif, DejaVu Serif, Sans-serif">
<text id="c" font-size="22.565px" transform="scale(.70643 1.4156)" y="-143.84949" x="9.7113333" font-weight="bold">B</text>
<text style="text-anchor:end;text-align:end" transform="rotate(90)" font-size="10px" y="-13.017045" x="-1.555788">HOGIER</text>
<use y="544.294983" x="1689.40002" xlink:href="#a" transform="matrix(-1 0 0 -1 29.344 -369.44)"/>
<use xlink:href="#b" transform="matrix(-.99 0 0 -.99 -1386.1 -784.12)"/>
</g>
</g>
<use xlink:href="#d" transform="matrix(-1 0 0 -1 168.66 -227.44)"/>
</svg>
