<?xml version="1.0" encoding="UTF-8" standalone="no"?>
<svg
   height="303"
   width="208"
   viewBox="0 0 167.08643 242.66748"
   version="1.1"
   id="svg5"
   sodipodi:docname="10_of_hearts.svg"
   inkscape:version="1.3.2 (091e20e, 2023-11-25, custom)"
   xmlns:inkscape="http://www.inkscape.org/namespaces/inkscape"
   xmlns:sodipodi="http://sodipodi.sourceforge.net/DTD/sodipodi-0.dtd"
   xmlns:xlink="http://www.w3.org/1999/xlink"
   xmlns="http://www.w3.org/2000/svg"
   xmlns:svg="http://www.w3.org/2000/svg">
  <defs
     id="defs5" />
  <sodipodi:namedview
     id="namedview5"
     pagecolor="#ffffff"
     bordercolor="#000000"
     borderopacity="0.25"
     inkscape:showpageshadow="2"
     inkscape:pageopacity="0.0"
     inkscape:pagecheckerboard="0"
     inkscape:deskcolor="#d1d1d1"
     inkscape:zoom="2.6831683"
     inkscape:cx="103.98155"
     inkscape:cy="151.5"
     inkscape:window-width="1920"
     inkscape:window-height="1009"
     inkscape:window-x="-8"
     inkscape:window-y="-8"
     inkscape:window-maximized="1"
     inkscape:current-layer="svg5" />
  <path
     stroke="#000"
     stroke-width=".5"
     d="m166.84 6.7634c0-3.7917-3.09-6.8909-6.87-6.8909l-152.85 0.00004c-3.7837 0-6.8637 3.0992-6.8637 6.8909l0.00003 229.12c0 3.79 3.08 6.89 6.86 6.89h152.85c3.78 0 6.87-3.1 6.87-6.89v-229.12 0.0068z"
     fill="#fff"
     id="path1" />
  <g
     id="g5">
    <g
       id="e"
       fill="#e61408">
      <g
         id="a">
        <path
           id="b"
           fill="#e61408"
           d="m 39.868,13.33 c -4.308,0.009 -7.811,3.691 -7.782,8.208 0.06,9.58 12.092,16.508 15.639,24.074 3.547,-7.566 15.604,-14.494 15.664,-24.074 0.029,-4.517 -3.474,-8.199 -7.782,-8.208 -4.307,-0.009 -7.869,3.657 -7.882,8.183 -0.013,-4.526 -3.55,-8.192 -7.857,-8.183 z" />
        <use
           xlink:href="#b"
           transform="translate(0,61.236)"
           id="use1" />
      </g>
      <use
         xlink:href="#a"
         transform="matrix(-1,0,0,1,167.09,0)"
         id="use2" />
      <text
         transform="scale(0.67172,1.4887)"
         style="letter-spacing:-0.82324px"
         font-family="'DejaVu Serif'"
         font-size="16.682px"
         y="17.374985"
         x="12.317241"
         font-weight="bold"
         id="text2">10</text>
      <use
         xlink:href="#b"
         transform="matrix(0.29991,0,0,0.30069,2.0553,25.429)"
         id="use3" />
      <use
         xlink:href="#b"
         transform="translate(35.806,30.617)"
         id="use4" />
    </g>
  </g>
  <use
     xlink:href="#e"
     transform="rotate(180,83.545,121.33)"
     id="use5" />
</svg>
